<svg width="22" height="22" viewBox="0 0 22 22" fill="none" xmlns="http://www.w3.org/2000/svg">
<path fill-rule="evenodd" clip-rule="evenodd" d="M9.70062 4.40137C10.2369 5.74854 10.6054 7.15658 10.7979 8.59375H22V12.9937H10.8439C10.6662 14.5743 10.2761 16.1237 9.68412 17.6H0V22V0H7.16718L7.16856 0.001375H0V4.40137H9.70062ZM10.956 10.9794C10.956 11.66 10.9182 12.3324 10.8439 12.9937H0V8.59375H10.7979C10.9024 9.37406 10.956 10.1702 10.956 10.9794Z" fill="#E9F3FF"/>
<path d="M22 4.40138L9.70062 4.40137C9.07142 2.82114 8.21871 1.33937 7.16856 0.001375L22 0.00138463V4.40138ZM22 22L7.13487 22C8.19104 20.663 9.04956 19.1812 9.68412 17.6L22 17.6V22Z" fill="#E9F3FF"/>
</svg>
