<svg width="22" height="24" viewBox="0 0 22 24" fill="none" xmlns="http://www.w3.org/2000/svg">
<path d="M9.26033 1.61623e-05C11.1597 -0.00310894 13.0325 0.447006 14.7231 1.31283C15.0791 1.49541 15.4224 1.69435 15.7565 1.90978C17.4439 2.99745 18.8312 4.49135 19.7914 6.2544C20.7516 8.01746 21.2538 9.99344 21.252 12.001C21.2522 14.1989 20.6487 16.3547 19.5074 18.2331C18.3674 20.1091 16.7345 21.6363 14.7867 22.6487L14.4237 11.833V11.718C14.4512 11.7053 14.4775 11.69 14.5022 11.6724C14.9239 11.4186 15.2161 10.8416 15.2161 10.1752C15.2164 10.0959 15.212 10.0167 15.2032 9.93789C15.1302 9.24775 14.745 8.69992 14.2502 8.5648C14.1773 8.08394 14.007 7.62293 13.7499 7.21008C13.7803 7.20667 13.8104 7.20157 13.8401 7.19475C13.8549 7.19135 13.8696 7.1874 13.8842 7.18316C13.9279 7.17045 13.9706 7.15412 14.0117 7.13413C14.039 7.12078 14.0657 7.10584 14.0915 7.08938C14.1302 7.0647 14.1666 7.03684 14.2003 7.00611C14.2115 6.99586 14.2225 6.98524 14.2331 6.97437C14.2544 6.95261 14.2745 6.92963 14.2932 6.90555C14.3119 6.88154 14.3292 6.85642 14.3451 6.83031C14.7293 6.26252 15.2189 5.67807 15.6582 4.88595C15.7826 4.66185 15.9029 4.42105 16.0157 4.1592L16.0377 4.10821C16.0689 4.04088 16.0823 3.96682 16.0773 3.893C16.0768 3.88612 16.0763 3.8792 16.0755 3.87232C16.0746 3.8649 16.0733 3.85756 16.0721 3.85021C16.0686 3.82946 16.0638 3.809 16.0575 3.78906C16.0416 3.7395 16.0171 3.69289 15.9847 3.65159C15.958 3.61252 15.9237 3.57903 15.8842 3.55299C15.7968 3.49193 15.6905 3.464 15.5844 3.47436C15.4783 3.48473 15.3793 3.53282 15.3054 3.60969C14.8658 4.02827 14.3905 4.25688 13.9719 4.50475C13.7328 4.6456 13.5127 4.79244 13.3298 4.98473C13.276 5.04084 13.225 5.10062 13.1776 5.16535C13.1375 5.07737 13.087 4.9945 13.0269 4.91876C12.8862 4.74049 12.6955 4.60824 12.4792 4.53898C12.3905 4.50902 12.299 4.49161 12.2071 4.48621C12.041 4.47614 11.8736 4.50582 11.7193 4.57482C11.6499 4.34147 11.5073 4.13672 11.3122 3.99107C11.1413 3.86344 10.9383 3.78703 10.7268 3.76998C10.721 3.7695 10.7152 3.7693 10.7094 3.76891C10.685 3.76732 10.6606 3.76641 10.6361 3.76641H10.6341C10.3904 3.76643 10.1533 3.8451 9.95802 3.99089C9.76292 4.13657 9.62008 4.34141 9.55078 4.57482C9.45228 4.53333 9.34895 4.50665 9.24411 4.49494C9.10914 4.47964 8.97161 4.48941 8.83848 4.52436C8.60197 4.58646 8.39265 4.72513 8.24331 4.91876C8.18151 4.99343 8.13057 5.07648 8.09229 5.16553C7.5644 4.44566 6.61044 4.22082 5.81684 3.46919C5.78891 3.43783 5.75502 3.41231 5.71717 3.39412C5.67932 3.37594 5.63821 3.36531 5.59628 3.3631C5.55436 3.3609 5.51243 3.36718 5.4729 3.38128C5.43335 3.3954 5.39698 3.41722 5.36592 3.44547C5.34948 3.45948 5.3347 3.47539 5.32206 3.4929C5.25377 3.58491 5.21124 3.69349 5.19903 3.80742C5.18683 3.92138 5.20542 4.03661 5.2527 4.14102C5.76573 5.35149 6.43585 6.09636 6.93246 6.83031C6.99559 6.93489 7.08186 7.0237 7.18475 7.08955C7.27919 7.15 7.38538 7.18924 7.49606 7.20581C7.50535 7.20727 7.5147 7.20895 7.52405 7.21008C7.26878 7.62385 7.09865 8.08443 7.02375 8.5648C6.47418 8.71452 6.0579 9.37734 6.0579 10.1752C6.05791 10.8836 6.38835 11.4898 6.85026 11.718L6.58923 19.4519L6.43589 24H2.16348C1.58985 23.9995 1.03985 23.7714 0.634211 23.3658C0.22859 22.9602 0.000505742 22.4101 0 21.8365V2.1635C0.000506645 1.58987 0.228591 1.03985 0.634211 0.634227C1.03985 0.228619 1.58985 0.000499633 2.16348 1.61623e-05H9.26033ZM4.84207 15.8778C4.70206 15.8552 4.55875 15.8891 4.44375 15.9721L3.091 16.947C3.08705 16.9499 3.0834 16.9531 3.07959 16.9561C3.00913 17.0082 2.95944 17.0836 2.94016 17.1694C2.92002 17.259 2.93439 17.353 2.98045 17.4325C3.02653 17.512 3.10091 17.5712 3.18871 17.5983C3.27654 17.6254 3.3715 17.6185 3.45437 17.5787L4.97526 16.8941C5.02261 16.8729 5.06629 16.8447 5.10542 16.811C5.10757 16.8091 5.10973 16.8073 5.11184 16.8054C5.12249 16.796 5.13281 16.7862 5.14269 16.7758C5.14566 16.7728 5.14852 16.7696 5.15142 16.7664C5.15243 16.7653 5.15364 16.7643 5.15463 16.7632C5.16243 16.7545 5.16973 16.7454 5.17692 16.7363C5.17835 16.7345 5.18015 16.7329 5.18156 16.7311C5.18333 16.7288 5.18463 16.7261 5.18637 16.7238C5.19346 16.7142 5.20045 16.7046 5.20688 16.6945C5.21056 16.6888 5.21393 16.6829 5.2174 16.6771C5.22157 16.67 5.2255 16.6628 5.22934 16.6555C5.23419 16.6463 5.23876 16.6371 5.24307 16.6277C5.24522 16.623 5.24729 16.6182 5.24931 16.6134C5.25886 16.5908 5.26755 16.5679 5.27392 16.5441C5.29207 16.4762 5.29658 16.4053 5.28729 16.3356C5.27799 16.266 5.25501 16.199 5.21971 16.1382C5.2106 16.1237 5.20158 16.1072 5.19065 16.0926C5.10759 15.9776 4.98211 15.9003 4.84207 15.8778ZM16.3969 15.8745C16.3273 15.8651 16.2564 15.8698 16.1885 15.8879C16.1206 15.9061 16.057 15.9375 16.0013 15.9805C15.9456 16.0234 15.899 16.077 15.8642 16.1381L15.8367 16.191C15.7796 16.3198 15.7759 16.4661 15.8266 16.5975C15.855 16.6713 15.8998 16.7365 15.9558 16.7901C15.9671 16.8009 15.9788 16.8112 15.991 16.821C16.0204 16.8445 16.0523 16.865 16.0865 16.8819C16.0934 16.8853 16.1 16.8892 16.107 16.8923L17.6279 17.5769C17.7105 17.6138 17.8038 17.6187 17.8898 17.5907C17.8997 17.5875 17.9094 17.5836 17.9189 17.5796C17.9224 17.5781 17.9258 17.5764 17.9292 17.5748C17.9358 17.5718 17.9423 17.5687 17.9487 17.5654C17.9515 17.5639 17.9542 17.5623 17.9569 17.5607C17.9635 17.557 17.97 17.5531 17.9763 17.549C17.9791 17.5471 17.9818 17.5453 17.9845 17.5434C17.9913 17.5388 17.9979 17.5339 18.0043 17.5288C18.0058 17.5276 18.0073 17.5263 18.0088 17.5251C18.0151 17.5199 18.0212 17.5144 18.0271 17.5088C18.0295 17.5066 18.0319 17.5044 18.0343 17.5021C18.0403 17.4961 18.0461 17.4899 18.0517 17.4835C18.0529 17.4822 18.054 17.4809 18.0551 17.4796C18.0622 17.4713 18.069 17.4628 18.0753 17.4539L18.0952 17.4254C18.1009 17.4156 18.1061 17.4056 18.1108 17.3954C18.1389 17.3343 18.1495 17.2666 18.1416 17.1998C18.1403 17.1887 18.1384 17.1776 18.1361 17.1665C18.1219 17.1003 18.0898 17.0397 18.0437 16.9912C18.036 16.9831 18.0279 16.9754 18.0195 16.9681C18.011 16.9607 18.0022 16.9536 17.9931 16.947L16.6401 15.9721L16.5945 15.9428C16.5338 15.9073 16.4666 15.884 16.3969 15.8745ZM8.35475 8.41878C8.39462 8.47202 8.44058 8.52044 8.49168 8.56302C8.67557 8.70765 8.90196 8.78777 9.13588 8.79107C9.36977 8.79435 9.59828 8.72075 9.78614 8.58139C9.78618 8.99579 10.2042 9.33164 10.7172 9.33167C10.764 9.33528 10.8111 9.33528 10.8579 9.33167C11.186 9.29164 11.4575 9.11512 11.58 8.87629C11.6274 8.79006 11.655 8.69551 11.6586 8.59636C11.8476 8.73495 12.0769 8.80772 12.3114 8.80283C12.5493 8.79786 12.7787 8.71339 12.9631 8.56302L13.0052 8.52522C13.0392 8.62407 13.0516 8.72908 13.0415 8.83314C13.0314 8.93742 12.999 9.03829 12.9465 9.12894C12.7551 9.44322 12.6466 9.80053 12.6307 10.1674L12.6398 10.2428C12.6398 10.2446 12.6398 10.2465 12.6398 10.2483C12.6398 10.2535 12.6401 10.2586 12.6402 10.2638C12.6404 10.281 12.6405 10.2982 12.6411 10.3153C12.6519 10.6684 12.745 11.0144 12.9137 11.3254L12.9367 11.365C12.9864 11.4714 13.0092 11.5886 13.003 11.7064C12.9959 11.8411 12.9511 11.9711 12.8736 12.0814C12.8089 12.1757 12.741 12.2672 12.67 12.3551C12.1702 12.9694 11.5138 13.4067 10.7063 13.4067H10.5091C9.70762 13.3373 8.86948 12.8135 8.34548 12.1836C8.25162 12.0688 8.19494 11.9282 8.18287 11.7804C8.17082 11.6327 8.20409 11.4848 8.27808 11.3564C8.47114 11.0298 8.57497 10.6586 8.58048 10.2797C8.58071 10.2668 8.58119 10.2539 8.58119 10.241C8.58119 10.2326 8.58092 10.2241 8.58083 10.2157C8.57924 9.84746 8.488 9.48501 8.31446 9.15997C8.25878 9.05863 8.22863 8.94554 8.2262 8.83047C8.22615 8.81705 8.22637 8.80362 8.22709 8.79017C8.23419 8.65693 8.27843 8.52823 8.35475 8.41878ZM2.77933 11.3714C2.7532 11.3699 2.72707 11.3701 2.70106 11.3718C2.69665 11.372 2.69226 11.3723 2.68786 11.3727C2.68083 11.3732 2.67383 11.3742 2.66682 11.375C2.6189 11.3801 2.57131 11.39 2.52508 11.4058L1.94435 11.6048C1.85674 11.6347 1.7807 11.6912 1.72683 11.7665C1.68326 11.8274 1.65635 11.8981 1.64749 11.9719C1.64525 11.99 1.64392 12.0082 1.64392 12.0265C1.64392 12.1191 1.67279 12.2094 1.72665 12.2847C1.78053 12.36 1.85672 12.4165 1.94435 12.4464L2.5249 12.6454C2.66115 12.691 2.80872 12.691 2.94497 12.6454C3.02716 12.6185 3.10322 12.5757 3.16874 12.5193C3.23426 12.4629 3.28798 12.3941 3.32671 12.3168C3.36544 12.2394 3.38836 12.155 3.39428 12.0687C3.4002 11.9825 3.38908 11.8958 3.3613 11.814C3.33351 11.7321 3.28976 11.6565 3.23257 11.5916C3.17537 11.5268 3.10582 11.4739 3.02806 11.4361C2.95027 11.3983 2.86568 11.3763 2.77933 11.3714ZM18.7398 11.4056C18.6036 11.36 18.4561 11.36 18.3199 11.4056C18.1917 11.4508 18.0818 11.5346 18.0041 11.644C17.9971 11.654 17.9903 11.6642 17.9838 11.6745C17.9713 11.6945 17.9596 11.715 17.9492 11.7364C17.8984 11.841 17.877 11.9563 17.8854 12.0703C17.8894 12.125 17.9003 12.1794 17.9182 12.2322C17.9378 12.29 17.9653 12.3441 17.9993 12.3934C18.0585 12.4791 18.1377 12.55 18.2311 12.5995C18.2356 12.6019 18.24 12.6044 18.2445 12.6067C18.2829 12.6259 18.3229 12.6412 18.3638 12.6525C18.374 12.6553 18.3843 12.6579 18.3946 12.6602C18.5081 12.6856 18.6274 12.6804 18.7398 12.6438L19.3221 12.4448C19.3879 12.4224 19.4472 12.3849 19.4954 12.3357C19.5115 12.3193 19.5264 12.3017 19.5398 12.2829C19.5937 12.2076 19.6227 12.1173 19.6227 12.0247C19.6227 11.9321 19.5937 11.8418 19.5398 11.7665C19.4859 11.6912 19.4098 11.6345 19.3221 11.6046L18.7398 11.4056ZM9.7002 10.1313C9.67173 10.1279 9.6428 10.1313 9.61586 10.1411C9.58894 10.151 9.56465 10.1669 9.54508 10.1879C9.51108 10.2221 9.49195 10.2684 9.49194 10.3166C9.49194 10.3648 9.51108 10.4111 9.54508 10.4453L10.1531 11.0041C10.2062 11.053 10.2437 11.1165 10.2608 11.1867L10.4544 11.9627C10.4644 12.0031 10.4879 12.0391 10.5211 12.0643C10.5543 12.0895 10.5953 12.1026 10.637 12.1014C10.6786 12.1026 10.7195 12.0895 10.7527 12.0643C10.7859 12.039 10.8096 12.0031 10.8196 11.9627C10.8835 11.6633 10.962 11.3474 11.0021 11.1867C11.0201 11.1169 11.0574 11.0536 11.1098 11.0041L11.7159 10.4453C11.7445 10.4191 11.7641 10.3844 11.7717 10.3464C11.7792 10.3083 11.7744 10.2687 11.7579 10.2335C11.7417 10.1998 11.7154 10.1719 11.6827 10.1536C11.6501 10.1354 11.6126 10.1276 11.5754 10.1313L10.7336 10.2463L10.6625 10.2554H10.6131L9.7002 10.1313ZM17.8824 6.64363C17.7963 6.61606 17.703 6.62155 17.6206 6.65878L16.0997 7.34149C16.0812 7.34878 16.0634 7.35803 16.0468 7.36895C15.9867 7.40482 15.9344 7.45223 15.8927 7.50838C15.851 7.56452 15.8207 7.6283 15.8037 7.69613C15.7868 7.76395 15.7834 7.83453 15.7938 7.90367C15.8041 7.97283 15.8281 8.03936 15.8642 8.09926L15.8897 8.13938C15.9075 8.16446 15.9278 8.18734 15.9494 8.20874C16.0278 8.28726 16.1288 8.34056 16.2397 8.35922C16.3801 8.38285 16.5242 8.34978 16.6401 8.26722L17.9931 7.29032C18.0661 7.23715 18.1169 7.15872 18.1355 7.0703C18.1542 6.98189 18.1394 6.8897 18.094 6.81159C18.0588 6.75105 18.007 6.70244 17.9455 6.67073C17.9254 6.65982 17.9044 6.65067 17.8824 6.64363ZM3.45615 6.65878C3.37378 6.62156 3.2805 6.61607 3.19441 6.64363C3.10832 6.67119 3.03552 6.72987 2.99008 6.80802C2.96707 6.84762 2.95206 6.89084 2.94515 6.93533C2.9381 6.97917 2.93905 7.02432 2.94836 7.06852C2.967 7.15697 3.01789 7.23537 3.091 7.28854L4.44393 8.26544C4.50468 8.30905 4.57395 8.33931 4.64719 8.35441C4.72049 8.36951 4.79627 8.36905 4.86935 8.35298C4.94192 8.33671 5.01041 8.30584 5.07065 8.26223C5.13092 8.2186 5.18176 8.16316 5.21989 8.09926C5.22071 8.0978 5.2214 8.09627 5.22221 8.09481C5.23142 8.07867 5.24717 8.06244 5.24717 8.04631C5.27578 7.98231 5.29163 7.91331 5.29353 7.84323C5.29543 7.77314 5.2835 7.70329 5.2584 7.63783C5.2333 7.57238 5.1954 7.5125 5.14715 7.46167C5.09889 7.41084 5.0411 7.36995 4.97705 7.34149L3.45615 6.65878Z" fill="#E9F3FF"/>
</svg>
