<svg width="24" height="24" viewBox="0 0 24 24" fill="none" xmlns="http://www.w3.org/2000/svg">
<path fill-rule="evenodd" clip-rule="evenodd" d="M21.0003 0.670288V2.32861C21.0003 2.69799 20.6994 2.99889 20.3289 2.99889H18.6708C18.3015 2.99889 18.0005 2.69912 18.0005 2.32861V0.670288C18.0005 0.299777 18.3003 0 18.6708 0H20.3289C20.6994 0 21.0003 0.299777 21.0003 0.670288ZM24 6.67144V8.32977C24 8.69914 23.6991 9.00009 23.3286 9.00009H21.6705C21.3 9.00009 21.0003 8.70026 21.0003 8.32977V6.67144C21.0003 6.30093 21.3 6.00116 21.6705 6.00116H23.3286C23.6991 6.00116 24 6.30093 24 6.67144ZM18.6459 6.90393V5.24561C18.6459 4.8751 18.3451 4.57533 17.9757 4.57533H16.3176C15.9471 4.57533 15.6474 4.8751 15.6474 5.24561V6.90393C15.6474 7.27444 15.9471 7.57422 16.3176 7.57422H17.9757C18.3462 7.57422 18.6459 7.27444 18.6459 6.90393ZM15.6711 12.0021H18.0005L17.9961 11.9999H20.3267C20.6983 11.9999 20.998 12.2997 20.998 12.6702V17.3296C20.998 17.7013 20.6972 18.001 20.3267 18.001H18.6685C18.2969 18.001 17.9972 18.3009 17.9972 18.6713V20.3296C17.9972 20.7002 17.6974 20.9999 17.327 20.9999H15.6688C15.2972 20.9999 14.9974 21.2997 14.9974 21.6702V23.3286C14.9974 23.7002 14.6977 24 14.3272 24H6.66741C6.29694 24 5.99719 23.6991 5.99719 23.3286V21.6702C5.99719 21.2997 5.69745 20.9999 5.32697 20.9999H3.66882C3.29835 20.9999 2.99859 20.7002 2.99859 20.3296V18.6713C2.99859 18.3009 2.69885 18.001 2.32838 18.001H0.670221C0.299747 18.001 0 17.7002 0 17.3296V9.66909C0 9.29854 0.299747 8.9988 0.670221 8.9988H2.33286C2.70333 8.9988 3.00309 8.69897 3.00309 8.32847V6.67127C3.00309 6.30076 3.30284 6.00099 3.6733 6.00099H5.33146C5.70194 6.00099 6.00168 5.70121 6.00168 5.3307V3.67351C6.00168 3.30299 6.30143 3.00321 6.67191 3.00321H11.3309C11.7014 3.00321 12.0011 3.30299 12.0011 3.67351V8.33296C12.0011 8.70352 12.3009 9.00326 12.6713 9.00326H14.3295C14.7011 9.00326 15.0009 9.303 15.0009 9.67354V11.3319C15.0009 11.7024 15.3006 12.0021 15.6711 12.0021ZM15.6711 18.0045H18.0005L17.9972 18.0033V15.6713C17.9972 15.3009 17.6963 15.001 17.3259 15.001H15.6677C15.2972 15.001 14.9974 14.7013 14.9974 14.3307V12.6724C14.9974 12.3019 14.6966 12.0021 14.3261 12.0021H12.668C12.2975 12.0021 11.9978 11.7024 11.9978 11.3319V9.67354C11.9978 9.303 11.698 9.00326 11.3275 9.00326H9.66934C9.29889 9.00326 8.99914 8.70352 8.99914 8.33296V6.67465C8.99914 6.30413 8.6994 6.00435 8.32893 6.00435H6.67078C6.30031 6.00435 6.00056 6.30413 6.00056 6.67465V8.33296C6.00056 8.70352 5.70081 9.00326 5.33034 9.00326H3.67218C3.30171 9.00326 3.00196 9.303 3.00196 9.67354V17.3342C3.00196 17.7046 3.30171 18.0045 3.67218 18.0045H5.33034C5.70081 18.0045 6.00056 18.3042 6.00056 18.6747V20.3331C6.00056 20.7035 6.30031 21.0033 6.67078 21.0033H14.3295C14.7011 21.0033 15.0009 20.7035 15.0009 20.3331V18.6759C15.0009 18.3042 15.3006 18.0045 15.6711 18.0045Z" fill="#E9F3FF"/>
</svg>
