<svg width="15" height="18" viewBox="0 0 15 18" fill="none" xmlns="http://www.w3.org/2000/svg">
<path fill-rule="evenodd" clip-rule="evenodd" d="M8.7003 9H3.6V3.6H8.7003C9.41638 3.6 10.1031 3.88446 10.6095 4.39081C11.1158 4.89716 11.4003 5.58392 11.4003 6.3C11.4003 7.01608 11.1158 7.70284 10.6095 8.20919C10.1031 8.71554 9.41638 9 8.7003 9ZM8.7003 0H0V18H3.6V12.6H8.7003C10.3712 12.6 11.9736 11.9363 13.1551 10.7548C14.3366 9.57329 15.0003 7.97086 15.0003 6.3C15.0003 4.62914 14.3366 3.02671 13.1551 1.84523C11.9736 0.663748 10.3712 0 8.7003 0Z" fill="#E9F3FF"/>
</svg>
