<svg width="24" height="22" viewBox="0 0 24 22" fill="none" xmlns="http://www.w3.org/2000/svg">
<path d="M23.1548 8.45774L19.7445 2.57212C18.8281 0.974071 17.1518 0 15.321 0H8.52107C6.68825 0 5.01401 0.974071 4.077 2.55359L0.687319 8.45774C0.237124 9.23309 0 10.1137 0 11.0103C0 11.9069 0.237124 12.7875 0.687319 13.5629L4.0976 19.4464C5.01401 21.0259 6.70885 22 8.53961 22H15.3396C17.1724 22 18.8487 21.0259 19.763 19.4464L23.1733 13.5629C24.0691 11.9833 24.0691 10.0352 23.1548 8.45774ZM12.1641 18.6083C12.0281 18.6083 11.9108 18.4929 11.9108 18.355V17.3232C11.9108 17.1873 12.0075 17.0885 12.1455 17.0699C15.3396 16.9525 17.9899 14.263 17.9899 10.9907C17.9899 7.5022 15.0471 4.69737 11.5215 4.91154C6.66972 5.20397 4.11613 10.9516 7.09806 14.712L8.18952 13.6411C5.90982 10.5233 8.50048 6.00094 12.438 6.44987C14.5611 6.68464 16.256 8.41861 16.4701 10.5418C16.7234 13.1922 14.6971 15.4142 12.1846 15.5501C12.0467 15.5501 11.9313 15.4327 11.9313 15.2968V14.263C11.9313 14.1477 12.0281 14.0303 12.1641 14.0303C13.723 13.9315 14.9895 12.6073 14.9895 10.9907C14.9895 9.19704 13.4306 7.7555 11.5792 7.96967C9.41689 8.20444 8.18952 10.7168 9.3201 12.5497L10.4692 11.3985C10.2344 10.5809 10.7802 9.66451 11.6389 9.51006C12.613 9.31442 13.4697 10.0558 13.4697 11.0093C13.4903 12.0039 12.4956 12.7432 11.5401 12.4714L11.1715 12.8421L7.60466 16.3883C7.31224 16.6807 6.82623 16.6807 6.5338 16.3883C6.35359 16.21 6.18441 16.0208 6.0272 15.822C2.11033 11.1452 5.30643 3.78096 11.4433 3.43087C15.8462 3.15698 19.5097 6.66405 19.5097 11.0299C19.5303 15.1218 16.2169 18.4929 12.1641 18.6083Z" fill="#E9F3FF"/>
</svg>
