<svg width="22" height="17" viewBox="0 0 22 17" fill="none" xmlns="http://www.w3.org/2000/svg">
<path d="M18.0083 1.34409C16.6524 0.721971 15.1985 0.263619 13.6783 0.00110123C13.6506 -0.00396528 13.6229 0.00869619 13.6087 0.0340197C13.4217 0.366597 13.2146 0.80047 13.0695 1.14149C11.4345 0.896707 9.80778 0.896707 8.20624 1.14149C8.06117 0.79289 7.84652 0.366597 7.65869 0.0340197C7.64443 0.00954111 7.61678 -0.00312036 7.58909 0.00110123C6.06974 0.26278 4.61579 0.721132 3.2591 1.34409C3.24736 1.34916 3.23729 1.35761 3.23061 1.36857C0.472779 5.48871 -0.282706 9.50758 0.0879097 13.4766C0.0895866 13.496 0.100487 13.5146 0.11558 13.5264C1.93512 14.8626 3.69765 15.6739 5.42745 16.2115C5.45514 16.22 5.48447 16.2099 5.50209 16.1871C5.91127 15.6283 6.27602 15.0391 6.58876 14.4195C6.60722 14.3832 6.5896 14.3401 6.55188 14.3258C5.97332 14.1063 5.42242 13.8387 4.89249 13.5349C4.85057 13.5104 4.84722 13.4504 4.88578 13.4217C4.99729 13.3382 5.10884 13.2512 5.21532 13.1634C5.23459 13.1474 5.26143 13.144 5.28409 13.1541C8.7655 14.7436 12.5346 14.7436 15.9749 13.1541C15.9975 13.1432 16.0244 13.1466 16.0445 13.1626C16.151 13.2504 16.2625 13.3382 16.3749 13.4217C16.4134 13.4504 16.4109 13.5104 16.369 13.5349C15.8391 13.8446 15.2882 14.1063 14.7088 14.325C14.6711 14.3393 14.6543 14.3832 14.6727 14.4195C14.9922 15.0382 15.3569 15.6274 15.7586 16.1862C15.7753 16.2099 15.8055 16.22 15.8332 16.2115C17.5714 15.6739 19.3339 14.8626 21.1535 13.5264C21.1694 13.5146 21.1795 13.4969 21.1811 13.4775C21.6247 8.88881 20.4382 4.9029 18.0359 1.36941C18.03 1.35761 18.02 1.34916 18.0083 1.34409ZM7.10866 11.0599C6.06051 11.0599 5.19687 10.0976 5.19687 8.91583C5.19687 7.73406 6.04376 6.77178 7.10866 6.77178C8.18191 6.77178 9.03719 7.74251 9.02042 8.91583C9.02042 10.0976 8.17352 11.0599 7.10866 11.0599ZM14.1772 11.0599C13.129 11.0599 12.2654 10.0976 12.2654 8.91583C12.2654 7.73406 13.1123 6.77178 14.1772 6.77178C15.2504 6.77178 16.1057 7.74251 16.089 8.91583C16.089 10.0976 15.2504 11.0599 14.1772 11.0599Z" fill="#E9F3FF"/>
</svg>
