<svg width="160" height="160" viewBox="0 0 160 160" fill="none" xmlns="http://www.w3.org/2000/svg">
<rect x="0.444444" y="0.444444" width="159.111" height="159.111" rx="79.5556" stroke="#E9F3FF" stroke-width="0.888889"/>
<rect x="8.88889" y="8.88892" width="142.222" height="142.222" rx="71.1111" stroke="#3E97FF" stroke-width="0.888889"/>
<path d="M49.9972 98.3372C50.5335 97.8008 51.271 97.488 52.0532 97.488H122.987C124.283 97.488 124.932 99.0524 124.015 99.9686L110.003 113.981C109.466 114.518 108.729 114.83 107.947 114.83H37.0127C35.7165 114.83 35.0684 113.266 35.9847 112.35L49.9972 98.3372Z" stroke="#E9F3FF" stroke-width="1.77778"/>
<path d="M49.9972 46.0187C50.5559 45.4823 51.2934 45.1694 52.0532 45.1694H122.987C124.283 45.1694 124.932 46.7338 124.015 47.6501L110.003 61.6626C109.466 62.199 108.729 62.5119 107.947 62.5119H37.0127C35.7165 62.5119 35.0684 60.9475 35.9847 60.0312L49.9972 46.0187Z" stroke="#E9F3FF" stroke-width="1.77778"/>
<path d="M110.003 72.0106C109.466 71.4742 108.729 71.1613 107.947 71.1613H37.0127C35.7165 71.1613 35.0684 72.7257 35.9847 73.642L49.9972 87.6545C50.5335 88.1908 51.271 88.5037 52.0532 88.5037H122.987C124.283 88.5037 124.932 86.9393 124.015 86.023L110.003 72.0106Z" stroke="#E9F3FF" stroke-width="1.77778"/>
</svg>
