<svg width="160" height="160" viewBox="0 0 160 160" fill="none" xmlns="http://www.w3.org/2000/svg">
<rect x="0.444444" y="0.444444" width="159.111" height="159.111" rx="79.5556" stroke="#3E97FF" stroke-width="0.888889"/>
<rect x="8.88892" y="8.88892" width="142.222" height="142.222" rx="71.1111" stroke="#E9F3FF" stroke-width="0.888889"/>
<path d="M52.0526 98.3809H122.987C123.488 98.3809 123.737 98.9836 123.384 99.3369L109.371 113.35C109.001 113.72 108.49 113.937 107.947 113.938H37.0126C36.5118 113.937 36.2627 113.334 36.6161 112.98L50.6288 98.9688C50.9989 98.5986 51.5094 98.381 52.0526 98.3809ZM51.1757 72.0781C54.8971 72.0782 57.9138 75.095 57.9139 78.8164V87.6104H52.0526C51.5094 87.6102 50.9989 87.3926 50.6288 87.0225L36.6161 73.0107C36.3076 72.7022 36.4599 72.1886 36.8466 72.0781H51.1757ZM75.077 72.0781H108.242C108.674 72.1416 109.069 72.3402 109.371 72.6416L123.384 86.6543C123.737 87.0076 123.488 87.6103 122.987 87.6104H68.3378V78.8164C68.3379 75.0949 71.3555 72.0781 75.077 72.0781ZM122.987 46.0635C123.488 46.0635 123.737 46.6651 123.384 47.0186L109.371 61.0312C109.106 61.2961 108.769 61.4817 108.398 61.5664H75.077C71.3555 61.5664 68.3379 58.5496 68.3378 54.8281V46.0635H122.987ZM52.0526 46.0635H57.9139V54.8281C57.9138 58.5496 54.8971 61.5663 51.1757 61.5664H36.7655C36.4373 61.4123 36.332 60.9472 36.6161 60.6631L50.6219 46.6562C51.0242 46.2733 51.5413 46.0636 52.0526 46.0635Z" stroke="#3E97FF" stroke-width="1.78616"/>
<path d="M62.6523 50.7349C62.7671 50.0527 63.7502 50.0609 63.8537 50.7449L64.5388 55.2749C65.3373 60.554 69.4842 64.6958 74.7643 65.4876L79.3816 66.1801C80.0655 66.2827 80.0753 67.2653 79.3936 67.3814L74.5635 68.2042C69.3993 69.084 65.3781 73.1703 64.5814 78.3479L63.8557 83.0642C63.7507 83.7465 62.7703 83.7542 62.6547 83.0736L61.821 78.1677C60.9545 73.069 56.9593 69.0752 51.8603 68.2105L47.17 67.4151C46.4896 67.2998 46.4965 66.32 47.1784 66.2142L51.7161 65.5104C56.8963 64.7069 60.9794 60.6758 61.8493 55.5064L62.6523 50.7349Z" fill="#E9F3FF"/>
</svg>
