<svg width="100" height="79" viewBox="0 0 100 79" fill="none" xmlns="http://www.w3.org/2000/svg">
<path d="M18.5596 59.8623H98.3604C98.9239 59.8623 99.204 60.54 98.8066 60.9375L83.043 76.7021C82.6265 77.1186 82.0516 77.3632 81.4404 77.3633H1.63965C1.07615 77.3633 0.795731 76.6847 1.19336 76.2871L16.957 60.5234C17.3735 60.107 17.9483 59.8624 18.5596 59.8623ZM17.5723 30.2715C21.7591 30.2715 25.1533 33.6658 25.1533 37.8525V47.7451H18.5596C17.9483 47.7451 17.3735 47.5005 16.957 47.084L1.19336 31.3203C0.846376 30.9732 1.01735 30.3959 1.45215 30.2715H17.5723ZM44.4609 30.2715H81.7725C82.258 30.3429 82.7038 30.5671 83.043 30.9062L98.8066 46.6699C99.2041 47.0674 98.9239 47.7451 98.3604 47.7451H36.8799V37.8525C36.8799 33.6659 40.2743 30.2717 44.4609 30.2715ZM98.3604 1.00488C98.9239 1.00493 99.2041 1.68252 98.8066 2.08008L83.043 17.8447C82.7446 18.1431 82.3636 18.3512 81.9463 18.4463H44.4609C40.2743 18.4461 36.8799 15.0519 36.8799 10.8652V1.00488H98.3604ZM18.5596 1.00488H25.1533V10.8652C25.1533 15.052 21.7591 18.4463 17.5723 18.4463H1.3623C0.992309 18.2734 0.873469 17.7496 1.19336 17.4297L16.9424 1.68066C17.3961 1.24505 17.9809 1.00495 18.5596 1.00488Z" stroke="#3E97FF" stroke-width="2.00943"/>
</svg>
