<svg width="77" height="36" viewBox="0 0 77 36" fill="none" xmlns="http://www.w3.org/2000/svg">
<path d="M0 18V36H38.46H76.92V26.58V17.16H51.3C26.1 17.16 25.692 17.16 25.56 16.932C25.488 16.776 25.44 13.872 25.44 8.352V0H12.72H0V18ZM9.588 3.672C10.44 3.924 11.292 4.752 11.508 5.556C11.724 6.312 11.616 7.428 11.28 7.98C11.136 8.208 10.788 8.568 10.488 8.784L9.96 9.156L10.416 9.36C10.98 9.612 11.616 10.248 11.856 10.8C11.964 11.052 12.036 11.544 12.024 12.06C12.012 13.5 11.412 14.436 10.14 15.024C9.576 15.276 9.36 15.3 6.876 15.336L4.2 15.372V9.432V3.48H6.576C8.388 3.48 9.108 3.528 9.588 3.672ZM19.608 3.72C21.468 4.428 22.44 6.36 22.44 9.42C22.44 12.348 21.612 14.088 19.812 14.964C19.152 15.288 19.104 15.288 16.8 15.3H14.46L14.424 9.384L14.4 3.48H16.68C18.672 3.48 19.032 3.516 19.608 3.72ZM19.272 20.46C21.168 21.024 22.188 22.62 22.464 25.488C22.62 27.024 22.428 28.704 21.96 29.904C21.6 30.864 20.724 31.788 19.788 32.22C19.116 32.52 18.948 32.544 17.892 32.496C16.908 32.46 16.656 32.412 16.188 32.136C14.556 31.176 13.8 29.316 13.8 26.256C13.8 24.696 13.992 23.508 14.388 22.632C14.664 22.008 15.492 21.06 16.008 20.796C17.016 20.268 18.228 20.148 19.272 20.46ZM30.012 20.604C31.152 21.12 31.968 22.116 32.436 23.58C32.664 24.312 32.7 24.696 32.7 26.46C32.7 28.632 32.604 29.196 32.064 30.3C31.692 31.08 31.056 31.74 30.3 32.136C29.76 32.436 29.58 32.46 28.38 32.46C27.24 32.46 26.988 32.424 26.556 32.196C25.488 31.62 24.744 30.588 24.348 29.088C24.012 27.84 23.976 25.08 24.276 23.832C24.672 22.236 25.548 21.108 26.832 20.568C27.432 20.316 27.684 20.28 28.5 20.316C29.124 20.34 29.652 20.448 30.012 20.604ZM40.26 20.448C40.596 20.532 41.004 20.676 41.16 20.76C41.736 21.048 42.72 21.852 42.72 22.008C42.72 22.104 42.456 22.38 42.132 22.62L41.532 23.052L40.992 22.632C40.272 22.092 39.72 21.912 38.7 21.912C37.272 21.912 36.6 22.464 36.6 23.628C36.6 24.792 36.96 25.068 39.06 25.5C40.764 25.86 41.52 26.184 42.072 26.784C42.684 27.456 42.876 27.996 42.876 28.992C42.888 30.984 41.496 32.316 39.24 32.508C38.028 32.604 37.044 32.46 36.18 32.052C35.412 31.692 34.32 30.804 34.32 30.54C34.32 30.408 35.292 29.52 35.436 29.52C35.46 29.52 35.724 29.736 36.012 30C36.804 30.72 37.632 30.996 38.856 30.936C39.912 30.876 40.248 30.732 40.728 30.084C41.076 29.616 41.124 28.608 40.8 28.104C40.488 27.6 40.02 27.408 38.28 27.048C36.06 26.58 35.316 26.088 34.872 24.804C34.512 23.76 34.704 22.488 35.328 21.66C35.712 21.168 36.552 20.652 37.308 20.448C38.052 20.244 39.516 20.244 40.26 20.448ZM62.376 20.916C62.412 21.336 62.34 21.456 61.476 22.404C60.408 23.568 59.52 24.624 59.52 24.72C59.52 24.756 59.748 24.852 60.036 24.924C62.364 25.56 63.468 27.9 62.496 30.144C62.172 30.912 61.164 31.824 60.264 32.16C59.232 32.556 57.732 32.532 56.796 32.1C56.04 31.764 55.332 31.152 54.888 30.456C54.732 30.204 54.6 29.976 54.6 29.952C54.6 29.916 54.9 29.676 55.272 29.412L55.944 28.932L56.676 29.7C57.516 30.552 58.104 30.804 59.028 30.672C60.144 30.516 60.84 29.664 60.84 28.428C60.84 26.88 59.508 26.172 57.648 26.712C57.276 26.82 56.916 26.868 56.832 26.844C56.748 26.808 56.616 26.496 56.556 26.148L56.424 25.524L57.792 24.012C58.548 23.184 59.16 22.464 59.16 22.428C59.16 22.26 58.56 22.2 56.976 22.2H55.344L55.296 21.348C55.272 20.88 55.284 20.472 55.32 20.448C55.344 20.412 56.94 20.412 58.86 20.424L62.34 20.46L62.376 20.916ZM9.612 20.724C10.476 21 11.292 21.804 11.508 22.596C11.868 23.868 11.448 25.212 10.5 25.836C10.008 26.148 9.996 26.196 10.368 26.376C10.848 26.592 11.664 27.384 11.844 27.804C12.036 28.284 12.048 29.628 11.856 30.264C11.664 30.936 10.92 31.716 10.176 32.052C9.564 32.328 9.42 32.34 6.9 32.34H4.26L4.224 26.424L4.2 20.52H6.588C8.52 20.52 9.096 20.556 9.612 20.724ZM53.616 21.264L53.58 22.02L51.744 22.08L49.908 22.14L49.92 27.204V32.28H48.96H48V27.18V22.08H46.14H44.28V21.3V20.52H48.96H53.652L53.616 21.264ZM70.824 20.76C71.556 21.024 72.372 21.792 72.648 22.44C73.104 23.532 72.996 25.188 72.408 26.076C72.156 26.46 70.98 27.36 70.548 27.504C70.476 27.528 70.812 28.248 71.28 29.1C72.288 30.912 72.996 32.292 72.936 32.34C72.912 32.352 72.48 32.34 71.976 32.316L71.052 32.244L69.948 30.192C68.4 27.3 68.652 27.6 67.68 27.6H66.84V29.94V32.28H65.94C65.16 32.28 65.04 32.256 65.028 32.064C65.016 31.692 65.016 22.152 65.028 21.324L65.04 20.52H67.62C69.888 20.52 70.26 20.544 70.824 20.76Z" fill="#E9F3FF"/>
<path d="M6.10785 4.96815C6.08385 4.99215 6.07185 5.82015 6.09585 6.79215L6.13185 8.55615L7.36785 8.49615C8.71185 8.42415 9.14385 8.28015 9.51585 7.77615C9.85185 7.33215 9.92385 6.27615 9.67185 5.77215C9.31185 5.08815 8.86785 4.92015 7.42785 4.92015C6.73185 4.92015 6.13185 4.94415 6.10785 4.96815Z" fill="#E9F3FF"/>
<path d="M6.05979 9.97222C6.02379 10.0682 6.01179 10.9802 6.02379 11.9882L6.05979 13.8242L7.54779 13.8122C9.21579 13.7882 9.57579 13.6682 9.97179 13.0442C10.3318 12.4682 10.2598 11.0642 9.83979 10.6082C9.38379 10.1162 8.83179 9.94822 7.42779 9.87622C6.35979 9.81622 6.11979 9.84022 6.05979 9.97222Z" fill="#E9F3FF"/>
<path d="M16.2719 5.01618C16.2479 5.06418 16.2239 7.04418 16.2359 9.42018L16.2599 13.7402L17.1839 13.7762C18.8279 13.8362 19.6319 13.4162 20.1719 12.2162C20.4359 11.6282 20.4479 11.4242 20.4599 9.42018C20.4599 7.65618 20.4239 7.15218 20.2439 6.64818C19.9799 5.88018 19.4039 5.31618 18.6599 5.08818C18.0479 4.90818 16.3799 4.86018 16.2719 5.01618Z" fill="#E9F3FF"/>
<path d="M17.3398 22.0082C16.7038 22.2482 16.2718 22.7762 16.0078 23.6762C15.6838 24.7322 15.6838 28.1642 16.0078 29.2202C16.4158 30.5882 17.0278 31.0322 18.3478 30.9362C19.9678 30.8162 20.5198 29.6642 20.5198 26.4002C20.5198 23.1842 20.0158 22.0922 18.4198 21.9122C18.0358 21.8642 17.6518 21.9002 17.3398 22.0082Z" fill="#E9F3FF"/>
<path d="M27.5278 22.008C27.3238 22.104 27.0118 22.356 26.8318 22.584C26.2678 23.328 26.1358 23.916 26.0638 25.908C25.9558 29.256 26.4478 30.636 27.8758 30.948C29.0998 31.236 30.2158 30.48 30.6238 29.112C30.8278 28.416 30.8278 24.492 30.6238 23.676C30.2398 22.224 28.8118 21.456 27.5278 22.008Z" fill="#E9F3FF"/>
<path d="M6.10785 22.008C6.08385 22.032 6.07185 22.848 6.09585 23.82L6.13185 25.584L7.43985 25.536C8.51985 25.5 8.80785 25.452 9.08385 25.248C10.2118 24.42 10.0438 22.488 8.81985 22.128C8.37585 21.984 6.21585 21.9 6.10785 22.008Z" fill="#E9F3FF"/>
<path d="M6.0478 28.9318L6.0598 30.8638L7.5598 30.8518C9.2638 30.8278 9.6358 30.6958 9.9838 29.9998C10.2958 29.3758 10.2718 28.3438 9.9238 27.8278C9.4798 27.1558 9.0238 26.9998 7.4278 26.9998H6.0238L6.0478 28.9318Z" fill="#E9F3FF"/>
<path d="M66.8398 24.06V26.04H68.3278C69.6598 26.04 69.8398 26.016 70.2118 25.764C70.7638 25.404 71.0398 24.804 71.0398 24C71.0398 23.172 70.7518 22.596 70.1998 22.296C69.8638 22.116 69.5038 22.08 68.3158 22.08H66.8398V24.06Z" fill="#E9F3FF"/>
</svg>
