<svg width="33" height="32" viewBox="0 0 33 32" fill="none" xmlns="http://www.w3.org/2000/svg">
<path d="M30.0847 8.06516L29.3868 6.8536C29.3323 6.75855 29.2562 6.67745 29.165 6.61661C29.074 6.55547 28.9698 6.5165 28.8608 6.50192C28.7518 6.48735 28.6409 6.49812 28.5367 6.53297C28.4328 6.56814 28.338 6.62643 28.2604 6.70374L26.6661 8.28821C26.5486 8.4048 26.4754 8.55847 26.4592 8.72259C26.4428 8.88702 26.4843 9.05177 26.5765 9.18896C27.1591 10.0729 27.6255 11.0275 27.9645 12.029C28.5978 13.9002 28.7743 15.8947 28.479 17.8473C28.1837 19.7996 27.4253 21.6544 26.2663 23.2582C25.1073 24.862 23.5811 26.1686 21.8139 27.0706C20.0463 27.9723 18.0883 28.4434 16.1014 28.445C14.0547 28.4507 12.038 27.9533 10.2315 26.9968L12.934 24.3122C14.2879 24.8214 15.7456 24.9966 17.1824 24.8227C18.6193 24.6484 19.9918 24.1307 21.1827 23.313C22.3737 22.4955 23.3473 21.4031 24.0196 20.1294C24.692 18.8558 25.0433 17.4389 25.0433 16.0005C25.0427 15.6932 25.0256 15.3862 24.9923 15.0808C24.8862 14.0549 24.601 13.0552 24.1492 12.1269C24.0988 12.0262 24.025 11.9387 23.9338 11.8716C23.8428 11.8044 23.737 11.76 23.6252 11.7414C23.5133 11.7227 23.399 11.7309 23.2909 11.7648C23.1826 11.7987 23.0844 11.8576 23.0036 11.9365L21.3855 13.5448C21.2993 13.63 21.2363 13.7358 21.203 13.8521C21.1694 13.9684 21.1663 14.0913 21.1938 14.2091L21.3297 14.7867C21.569 15.7974 21.5059 16.8553 21.1485 17.8305C20.7911 18.806 20.1549 19.6567 19.3182 20.278C18.4811 20.899 17.4799 21.264 16.4372 21.3277C15.3946 21.3914 14.356 21.1512 13.4486 20.6367L12.737 20.2315C12.6007 20.1532 12.4426 20.1222 12.2868 20.1424C12.1309 20.1627 11.9861 20.2337 11.8746 20.3439L5.27282 26.8966C5.20081 26.9682 5.14501 27.0541 5.10912 27.1488C5.07325 27.2436 5.05811 27.3446 5.06476 27.4457C5.07141 27.5468 5.09971 27.645 5.14768 27.7343C5.19567 27.8234 5.2623 27.9016 5.3431 27.9631L6.31536 28.7042C9.11899 30.8513 12.5618 32.0109 16.1014 32.0002C24.9787 32.0002 32.2015 24.8223 32.2015 16.0005C32.2021 13.2175 31.4728 10.4823 30.0847 8.06516Z" fill="#E9F3FF"/>
<path d="M25.886 3.29613C23.083 1.149 19.6407 -0.0105729 16.1013 7.26494e-05C7.22282 7.26494e-05 2.32036e-07 7.17781 2.32036e-07 16.0006C-0.000475014 18.7836 0.729091 21.5188 2.11678 23.9363L2.81479 25.1478C2.86925 25.2438 2.94542 25.3259 3.03727 25.3873C3.12912 25.4491 3.23415 25.4887 3.34406 25.5033C3.45396 25.5176 3.56571 25.5065 3.67052 25.4707C3.77536 25.4346 3.87031 25.375 3.94797 25.2964L5.54121 23.7132C5.6586 23.5963 5.73169 23.443 5.74801 23.2785C5.76432 23.1144 5.72288 22.9497 5.63072 22.8121C5.04861 21.9279 4.58214 20.9736 4.24259 19.9724C3.60908 18.1012 3.43251 16.1071 3.72745 14.1547C4.02239 12.2024 4.78038 10.348 5.93884 8.74422C7.0973 7.14043 8.62299 5.8335 10.3902 4.93117C12.1571 4.02889 14.1145 3.55726 16.1013 3.55514C18.1478 3.54953 20.1637 4.04702 21.97 5.0034L19.264 7.68886C17.9104 7.1794 16.4524 7.00419 15.0156 7.17813C13.5791 7.35175 12.2059 7.86977 11.0153 8.68751C9.82429 9.50493 8.85083 10.5977 8.17864 11.8713C7.50642 13.1453 7.1555 14.5622 7.15597 16.0006C7.15597 16.1482 7.19564 16.8215 7.20809 16.9375C7.31746 17.957 7.60267 18.95 8.05118 19.8732C8.10092 19.9756 8.17458 20.0646 8.26605 20.133C8.35749 20.2015 8.46404 20.2468 8.57683 20.2661C8.68962 20.2851 8.80536 20.2772 8.91442 20.2427C9.02344 20.2081 9.12261 20.1482 9.20362 20.0681L10.8217 18.4611C10.9082 18.3749 10.9712 18.2685 11.0045 18.1512C11.0378 18.0343 11.0406 17.9105 11.0121 17.7923L10.8784 17.2191C10.7846 16.8196 10.7364 16.4109 10.7358 16.0006C10.7355 15.0672 10.9823 14.1503 11.4509 13.3418C11.9195 12.5329 12.5937 11.8606 13.4061 11.392C14.2181 10.9234 15.1401 10.6753 16.0792 10.6718C17.0183 10.6687 17.9418 10.9107 18.7573 11.3736L19.4702 11.7788C19.6061 11.8568 19.7642 11.8878 19.9198 11.8675C20.0757 11.8473 20.2201 11.7763 20.3314 11.6664L26.9287 5.11017C27.0006 5.03857 27.0564 4.95271 27.0925 4.85766C27.1283 4.76293 27.1435 4.66186 27.1369 4.56079C27.1302 4.45972 27.102 4.36119 27.0539 4.27184C27.0057 4.18249 26.9392 4.1044 26.8584 4.04271L25.886 3.29613Z" fill="#E9F3FF"/>
</svg>
