<svg width="46" height="32" viewBox="0 0 46 32" fill="none" xmlns="http://www.w3.org/2000/svg">
<mask id="mask0_510_36645" style="mask-type:luminance" maskUnits="userSpaceOnUse" x="0" y="1" width="46" height="30">
<path d="M45.2175 1H0V31H45.2175V1Z" fill="white"/>
</mask>
<g mask="url(#mask0_510_36645)">
<path fill-rule="evenodd" clip-rule="evenodd" d="M22.7063 22.5891C22.9148 22.2808 22.9394 21.874 22.7431 21.5534L10.8304 1.39527C10.6587 1.09937 10.352 0.926758 10.0085 0.926758H1.6414C0.905295 0.926758 0.439095 1.72815 0.819417 2.36927L16.4739 29.2223C16.8174 29.8263 17.6885 29.8633 18.0811 29.2838L22.7063 22.5891ZM8.24182 28.803C8.62214 29.444 8.15594 30.2578 7.41982 30.2578H7.40757H1.67821C1.15066 30.2578 0.72127 29.8263 0.72127 29.296V19.5807C0.72127 18.5944 2.00945 18.2492 2.50019 19.0876L8.24182 28.803Z" fill="#E9F3FF"/>
<path d="M45.1322 29.0742C45.5002 29.7153 45.0462 30.5168 44.3102 30.5168H35.9922C35.6487 30.5168 35.3419 30.3317 35.1702 30.0357L19.0372 2.36927C18.6691 1.72815 19.1231 0.926758 19.8592 0.926758H28.2139C28.5574 0.926758 28.8642 1.11169 29.0359 1.4076L45.1322 29.0742Z" fill="#E9F3FF"/>
</g>
</svg>
