<svg width="34" height="27" viewBox="0 0 34 27" fill="none" xmlns="http://www.w3.org/2000/svg">
<path d="M17 0.00292969C32.3 -0.156958 34 6.03477 34 13.4756C34 20.9166 32.5299 27.269 17 26.9492C1.4701 26.6294 -3.25254e-07 20.9166 0 13.4756C3.37054e-05 6.03477 1.69997 0.162829 17 0.00292969ZM18.1729 3.81934C15.0794 3.81949 12.3417 5.34206 10.668 7.67871C7.35145 8.40234 4.86737 11.3562 4.86719 14.8896C4.86719 18.9658 8.17198 22.2704 12.248 22.2705H23.668C26.8495 22.2704 29.4287 19.6913 29.4287 16.5098C29.4287 14.7279 28.6195 13.1348 27.3486 12.0781C26.8653 7.43731 22.9415 3.81934 18.1729 3.81934ZM23.7021 12.5703C24.4519 12.5703 25.0596 13.1789 25.0596 13.9287C25.0594 17.0526 22.5272 19.585 19.4033 19.585C16.2793 19.5849 13.7472 17.0525 13.7471 13.9287C13.7471 13.1789 14.3548 12.5703 15.1045 12.5703C15.4101 12.5703 15.9175 12.6419 16.5186 12.7266C17.3926 12.8495 18.4651 13.001 19.4033 13.001C20.3416 13.001 21.414 12.8495 22.2881 12.7266C22.8892 12.6419 23.3966 12.5703 23.7021 12.5703ZM19.4033 15.4219C18.2737 15.4219 17.2401 15.6285 16.4473 15.9707C15.9783 16.1733 15.8592 16.7883 16.2227 17.1475C17.04 17.955 18.1636 18.4541 19.4033 18.4541C20.6429 18.4541 21.7659 17.9549 22.583 17.1475C22.9468 16.788 22.8276 16.1732 22.3584 15.9707C21.5656 15.6286 20.5328 15.4219 19.4033 15.4219ZM16.2354 8.125C17.1102 8.125 17.8193 8.83418 17.8193 9.70898C17.8191 10.5836 17.11 11.293 16.2354 11.293C15.3608 11.2928 14.6516 10.5835 14.6514 9.70898C14.6514 8.8343 15.3607 8.12519 16.2354 8.125ZM22.5713 8.125C23.446 8.12514 24.1553 8.83427 24.1553 9.70898C24.155 10.5835 23.4458 11.2928 22.5713 11.293C21.6966 11.293 20.9876 10.5836 20.9873 9.70898C20.9873 8.83418 21.6965 8.125 22.5713 8.125Z" fill="#E9F3FF"/>
</svg>
