<svg width="33" height="32" viewBox="0 0 33 32" fill="none" xmlns="http://www.w3.org/2000/svg">
<path d="M23.2168 24.7937C19.7386 19.1443 14.5525 15.9421 8.14812 14.6091C5.88314 14.1405 3.60775 14.1457 1.41045 15.0101C-0.0943257 15.6037 -0.323427 16.2285 0.384705 17.8062C5.19584 16.6659 9.67373 17.7281 13.8652 20.1492C18.088 22.5913 21.2381 25.9913 22.67 30.8233C24.6799 30.2089 24.9402 29.8704 24.456 28.0012C24.1696 26.9025 23.8103 25.757 23.2168 24.7937Z" fill="#E9F3FF"/>
<path d="M27.0235 20.1962C22.556 13.6876 16.2297 10.048 8.49748 8.82962C6.45119 8.50679 4.36324 8.59531 2.44712 9.5742C1.53071 10.0428 0.718444 10.6416 0.499756 11.9121C6.52929 10.2511 11.9392 11.7194 17.0315 14.6717C22.1498 17.6396 26.1487 21.6229 27.7056 27.7461C28.7886 26.788 28.9812 25.6113 28.7001 24.5179C28.3148 23.0183 27.8774 21.4406 27.0235 20.1962Z" fill="#E9F3FF"/>
<path d="M0.775177 20.6126C1.15528 21.4561 1.40521 22.409 1.97275 23.0911C2.25913 23.4399 3.12867 23.3046 3.73267 23.3879C3.82639 23.3983 3.92012 23.4139 4.01384 23.4243C9.37169 24.221 13.5997 26.814 16.6196 31.3387C16.7967 31.6043 17.083 32 17.3173 32C18.2233 31.9948 19.1345 31.8542 20.0509 31.7657C18.6867 24.2001 7.42953 17.9936 0.775177 20.6126Z" fill="#E9F3FF"/>
<path d="M29.4963 14.2655C26.544 10.1364 22.4722 7.38721 17.8485 5.42943C14.6463 4.07044 11.3296 3.25297 7.80972 3.67472C6.59132 3.82051 5.45102 4.16937 4.50858 4.96081C16.5312 5.26281 25.5755 10.4697 31.7925 20.7532C31.8029 20.0711 31.907 19.3109 31.6571 18.6965C31.0323 17.1709 30.4387 15.5828 29.4963 14.2655Z" fill="#E9F3FF"/>
<path d="M32.2666 12.1098C29.8194 2.79474 19.8743 -1.68836 12.5222 0.581827C20.4418 2.14388 26.94 5.91885 32.2666 12.1098Z" fill="#E9F3FF"/>
<path d="M3.39978 25.5748C6.24272 29.1832 9.85628 31.2868 14.4904 31.9689C12.72 28.6625 6.48224 25.0854 3.39978 25.5748Z" fill="#E9F3FF"/>
</svg>
