<svg width="33" height="28" viewBox="0 0 33 28" fill="none" xmlns="http://www.w3.org/2000/svg">
<path d="M17.7307 0C19.4534 0.0032775 21.0295 0.436645 22.5491 1.32422C23.4224 1.83416 24.284 2.50453 25.1096 3.31738C25.9925 4.18653 26.8652 5.2478 27.7024 6.47168C27.9887 6.88984 28.2539 7.32256 28.4963 7.76758C29.1765 8.13266 30.2627 8.88408 31.2864 10.3174C32.4931 12.0077 32.703 13.5834 32.7278 14.3125C32.733 14.4731 32.5412 14.5425 32.425 14.4316C31.9493 13.9759 30.9765 13.1989 30.0959 13.4609C30.1356 14.5318 30.0363 15.604 29.801 16.6494C29.4458 18.2367 28.7929 19.7513 27.8596 21.1504C26.9456 22.52 25.8026 23.7222 24.4807 24.7041C22.1096 26.4703 19.3414 27.4062 16.5569 27.4062C16.0767 27.4064 15.5966 27.3784 15.1174 27.3223C13.5182 27.1347 11.9536 26.6348 10.467 25.8359C8.87112 24.9781 7.36427 23.7729 5.98853 22.2549L5.64966 21.8809C5.54997 21.7707 5.42104 21.6303 5.30981 21.5088C2.50247 21.5731 0.603485 18.7018 0.0236816 17.6924C-0.0536172 17.5574 0.0703074 17.4009 0.224854 17.4209C2.23443 17.6831 3.43324 15.9367 5.0481 17.25L5.05103 17.2549C5.01338 15.1779 7.12641 15.3064 8.15649 13.5625C8.23601 13.4288 8.43479 13.4281 8.49341 13.5723C8.93327 14.6544 10.0317 17.9343 8.22974 20.1064C8.24422 20.1152 8.25877 20.1238 8.27368 20.1318L8.2981 20.1455L8.32153 20.1592C9.5811 20.942 10.7676 21.5212 11.8479 21.8809C12.8408 22.2114 13.7516 22.3599 14.5549 22.3213C15.2968 22.2855 15.9445 22.0911 16.4807 21.7441C16.9781 21.4226 17.37 20.9766 17.6448 20.4189C18.0926 19.5095 18.1966 18.3453 17.9485 17.1582C16.6199 16.4345 14.3508 17.0415 13.2249 17.4209C12.9409 17.5168 12.6627 17.2649 12.7649 16.9834C13.1569 15.9043 14.1253 13.9071 15.9836 13.6416L15.9934 13.6396C15.775 13.4317 15.5423 13.239 15.2971 13.0635C12.9075 11.3591 10.5771 8.69367 9.3606 6.27246C8.75253 5.06214 8.47308 4.00541 8.552 3.2168C8.59434 2.79531 8.73803 2.45089 8.98071 2.19336C9.23753 1.92056 9.60724 1.74275 10.0784 1.66504C10.7699 1.5513 11.5897 1.29632 12.4573 1.02637C12.8011 0.918069 13.1458 0.812058 13.4915 0.709961C14.6931 0.358456 16.134 0 17.7112 0H17.7307ZM23.262 23.5742C31.4545 16.7993 18.043 4.27751 11.4514 5.21875C10.7541 5.31859 10.9756 5.84082 11.0598 5.99805L11.0754 6.02539C11.0817 6.03644 11.0852 6.04297 11.0852 6.04297V6.04395C11.5927 6.94358 12.2693 7.88859 13.0647 8.80664C14.0478 9.94156 15.1475 10.9555 16.2434 11.7373C17.7226 12.7925 18.8329 14.3557 19.3694 16.1387C19.6249 16.9883 19.738 17.8432 19.7053 18.6797C19.6701 19.576 19.468 20.4034 19.1057 21.1387C18.699 21.964 18.1141 22.6287 17.3665 23.1123C16.5857 23.6176 15.6656 23.8985 14.6331 23.9482C14.523 23.9535 14.4114 23.9561 14.2991 23.9561C12.395 23.956 10.1741 23.193 7.68872 21.6836C8.80093 22.8182 9.99276 23.7308 11.2385 24.4004C12.5435 25.1019 13.9123 25.5406 15.3069 25.7041C18.0557 26.0265 20.8689 25.2707 23.262 23.5742ZM19.0413 3.5752C17.6232 3.57532 18.0801 4.44375 18.3088 4.76465C18.5377 5.08501 19.1334 5.47867 19.7288 5.77637C20.3237 6.07391 21.1019 6.14936 21.5598 6.18457C22.0174 6.21951 22.9318 6.13825 23.0696 5.77637C22.6285 5.18193 20.4602 3.5752 19.0413 3.5752Z" fill="#E9F3FF"/>
</svg>
