<svg width="36" height="29" viewBox="0 0 36 29" fill="none" xmlns="http://www.w3.org/2000/svg">
<path d="M5.84886 21.5326C6.06608 21.3154 6.36477 21.1887 6.68156 21.1887H35.4099C35.9348 21.1887 36.1973 21.8223 35.8262 22.1934L30.1511 27.8684C29.9339 28.0857 29.6352 28.2124 29.3184 28.2124H0.590148C0.0651824 28.2124 -0.1973 27.5788 0.173796 27.2077L5.84886 21.5326Z" fill="#E9F3FF"/>
<path d="M5.84886 0.343943C6.07513 0.126716 6.37382 0 6.68156 0H35.4099C35.9348 0 36.1973 0.633579 35.8262 1.00468L30.1511 6.67974C29.9339 6.89696 29.6352 7.02368 29.3184 7.02368H0.590148C0.0651824 7.02368 -0.1973 6.3901 0.173796 6.019L5.84886 0.343943Z" fill="#E9F3FF"/>
<path d="M30.1511 10.8704C29.9339 10.6532 29.6352 10.5265 29.3184 10.5265H0.590148C0.0651824 10.5265 -0.1973 11.1601 0.173796 11.5311L5.84886 17.2062C6.06608 17.4234 6.36477 17.5501 6.68156 17.5501H35.4099C35.9348 17.5501 36.1973 16.9166 35.8262 16.5455L30.1511 10.8704Z" fill="#E9F3FF"/>
</svg>
