<svg width="72" height="72" viewBox="0 0 72 72" fill="none" xmlns="http://www.w3.org/2000/svg">
<path d="M34.6213 21.8357V39.8357L46.6213 45.8357" stroke="#3E97FF" stroke-width="2" stroke-linecap="round" stroke-linejoin="round"/>
<path d="M35.9946 6.00024C41.8151 5.99918 47.5101 7.69128 52.3857 10.8703C57.2612 14.0493 61.1067 18.578 63.4535 23.9044C65.8003 29.2307 66.547 35.1247 65.6026 40.868C64.6581 46.6113 62.0634 51.9558 58.1346 56.2502" stroke="#3E97FF" stroke-width="2" stroke-linecap="round" stroke-linejoin="round"/>
<path d="M7.49451 26.6248C6.53856 29.5307 6.03271 32.5658 5.99451 35.6248" stroke="#3E97FF" stroke-width="2" stroke-linecap="round" stroke-linejoin="round"/>
<path d="M8.48486 47.9998C10.1694 51.8752 12.6536 55.3511 15.7749 58.1998" stroke="#3E97FF" stroke-width="2" stroke-linecap="round" stroke-linejoin="round"/>
<path d="M13.9025 15.7045C14.7396 14.7932 15.6323 13.9346 16.5755 13.1335" stroke="#3E97FF" stroke-width="2" stroke-linecap="round" stroke-linejoin="round"/>
<path d="M25.9269 64.2604C33.408 66.9255 41.6406 66.5155 48.8199 63.1204" stroke="#3E97FF" stroke-width="2" stroke-linecap="round" stroke-linejoin="round"/>
</svg>
