<svg width="64" height="50" viewBox="0 0 64 50" fill="none" xmlns="http://www.w3.org/2000/svg">
<path d="M10.9532 37.6357C11.3228 37.2661 11.831 37.0505 12.37 37.0505H61.2477C62.1409 37.0505 62.5875 38.1285 61.9561 38.7599L52.3006 48.4153C51.9311 48.7849 51.4229 49.0005 50.8839 49.0005H2.00614C1.11298 49.0005 0.666392 47.9225 1.29777 47.2912L10.9532 37.6357Z" stroke="#3E97FF" stroke-width="2"/>
<path d="M10.9532 1.58518C11.3382 1.21559 11.8464 1 12.37 1H61.2477C62.1409 1 62.5875 2.07796 61.9561 2.70934L52.3006 12.3648C51.9311 12.7344 51.4229 12.95 50.8839 12.95H2.00614C1.11298 12.95 0.666392 11.872 1.29777 11.2406L10.9532 1.58518Z" stroke="#3E97FF" stroke-width="2"/>
<path d="M52.3006 19.4951C51.9311 19.1255 51.4229 18.9099 50.8839 18.9099H2.00614C1.11298 18.9099 0.666392 19.9879 1.29777 20.6192L10.9532 30.2747C11.3228 30.6443 11.831 30.8599 12.37 30.8599H61.2477C62.1409 30.8599 62.5875 29.7819 61.9561 29.1505L52.3006 19.4951Z" stroke="#3E97FF" stroke-width="2"/>
</svg>
