<svg width="66" height="66" viewBox="0 0 66 66" fill="none" xmlns="http://www.w3.org/2000/svg">
<path d="M33 1V0V0V1ZM65 33H66V33H65ZM33 65V66V66V65ZM1 33H0V33H1ZM40.334 10.4668L39.887 11.3613L39.9529 11.3943L40.0229 11.4172L40.334 10.4668ZM39.1338 11L39.8409 11.7071L40.0368 11.5112L40.1039 11.2425L39.1338 11ZM39 13.4004H38V13.4005L39 13.4004ZM39.7998 14.7334L39.2446 15.5651L39.3465 15.6332L39.462 15.6746L39.7998 14.7334ZM51.667 40.334L50.7312 39.9815L50.7281 39.9896L50.7253 39.9976L51.667 40.334ZM39.7998 52.2002L39.4562 51.2611L39.4032 51.2805L39.3527 51.3057L39.7998 52.2002ZM39 55.4004H38V55.4004L39 55.4004ZM39.7998 56.4668L39.5575 57.437L39.6768 57.4668H39.7998V56.4668ZM40.334 56.334L40.0328 55.3804L39.8003 55.4538L39.6277 55.626L40.334 56.334ZM55.9336 26.2002L56.8872 25.8991V25.8991L55.9336 26.2002ZM26.2002 10.334L26.4424 9.36376L26.3231 9.33398H26.2002V10.334ZM25.667 10.4668L25.9681 11.4204L26.2001 11.3471L26.3725 11.1755L25.667 10.4668ZM10.0664 40.6006L9.11281 40.9017L9.11438 40.9066L10.0664 40.6006ZM25.667 56.2002L26.1138 55.3056L26.0456 55.2715L25.973 55.2482L25.667 56.2002ZM26.8662 55.667L26.16 54.959L25.9633 55.1552L25.896 55.4246L26.8662 55.667ZM27 55.1338H28H27ZM27 53.2666H28V53.2662L27 53.2666ZM26.2002 52.0664L26.7552 51.2346L26.6533 51.1666L26.538 51.1252L26.2002 52.0664ZM14.334 26.4668L15.2698 26.8193L15.2728 26.8112L15.2757 26.8031L14.334 26.4668ZM26.2002 14.6006L26.5438 15.5397L26.5967 15.5203L26.6472 15.4951L26.2002 14.6006ZM30.8662 18.333L29.8857 18.1368L29.8662 18.2339V18.333H30.8662ZM30.8662 21.3994L30.9984 22.3906L31.8662 22.2749V21.3994H30.8662ZM24.334 27.9336H23.334V27.9336L24.334 27.9336ZM32.5996 34.7334L32.7754 33.749L32.7467 33.7439L32.7179 33.7404L32.5996 34.7334ZM37.5332 38.333H38.5332V38.333L37.5332 38.333ZM33.1338 41.9336V42.9336H33.1338L33.1338 41.9336ZM28.0664 38.4658L29.047 38.2697L29.0423 38.2463L29.0365 38.2232L28.0664 38.4658ZM27.1338 37.666L27.1341 36.666H27.1338V37.666ZM24.8662 37.666V36.666H24.8658L24.8662 37.666ZM23.9336 38.5996L22.9336 38.5995V38.5996H23.9336ZM23.9336 38.7334H22.9336V38.8129L22.9461 38.8914L23.9336 38.7334ZM31 45.1328H32V44.273L31.1499 44.1441L31 45.1328ZM32.0664 49.3994L31.87 50.3799L31.9672 50.3994H32.0664V49.3994ZM35.1338 48.333L36.1143 48.5293L36.1338 48.4321V48.333H35.1338ZM35.1338 45.1328L34.9693 44.1464L34.1338 44.2858V45.1328H35.1338ZM41.7998 38.0664L42.7998 38.0664V38.0664H41.7998ZM33.4004 31.1328L33.2682 32.1241L33.2822 32.1258L33.4004 31.1328ZM28.5996 27.666L27.5996 27.666V27.666H28.5996ZM32.5996 24.5996V23.5996H32.5996L32.5996 24.5996ZM37 27.3994L36.0513 27.7156L36.0514 27.7159L37 27.3994ZM41 27H42V26.9098L41.9839 26.8211L41 27ZM35 21.5332H34V22.45L34.9134 22.5294L35 21.5332ZM35 18.333H36V18.3329L35 18.333ZM33.9336 17.2666L34.1299 16.2861L34.0327 16.2666H33.9336V17.2666ZM33 1V2C50.1812 2 64 15.8188 64 33H65H66C66 14.7143 51.2857 0 33 0V1ZM65 33H64C64 50.1812 50.1812 64 33 64V65V66C51.2857 66 66 51.2857 66 33H65ZM33 65V64C15.8188 64 2 50.1812 2 33H1H0C0 51.2857 14.7143 66 33 66V65ZM1 33H2C2 15.8188 15.8188 2 33 2V1V0C14.7143 8.34465e-07 8.34465e-07 14.7143 0 33H1ZM40.334 10.4668L40.781 9.57226C40.2658 9.31481 39.68 9.28791 39.165 9.52545C38.6545 9.76092 38.2986 10.2176 38.1636 10.7575L39.1338 11L40.1039 11.2425C40.1039 11.2425 40.1039 11.2425 40.1039 11.2427C40.1039 11.2428 40.1038 11.243 40.1037 11.2433C40.1036 11.2438 40.1033 11.2446 40.103 11.2455C40.1022 11.2475 40.1011 11.2504 40.0993 11.2539C40.0958 11.2611 40.0902 11.2706 40.0816 11.2812C40.0639 11.3032 40.0373 11.3256 40.0027 11.3416C39.9677 11.3577 39.9338 11.363 39.9075 11.3622C39.8812 11.3613 39.874 11.3548 39.887 11.3613L40.334 10.4668ZM39.1338 11L38.4267 10.2929C37.9549 10.7647 38 11.3468 38 11.5342H39H40C40 11.4621 40.0002 11.4253 40.0013 11.3975C40.0024 11.3713 40.0034 11.3834 39.9973 11.4139C39.99 11.4501 39.974 11.5067 39.9403 11.5703C39.9065 11.6341 39.8684 11.6796 39.8409 11.7071L39.1338 11ZM39 11.5342H38V13.4004H39H40V11.5342H39ZM39 13.4004L38 13.4005C38 13.9117 38.1881 14.3642 38.4088 14.7076C38.6313 15.0535 38.9276 15.3535 39.2446 15.5651L39.7998 14.7334L40.355 13.9017C40.2722 13.8464 40.1686 13.7464 40.0911 13.6259C40.012 13.5028 40 13.4223 40 13.4003L39 13.4004ZM39.7998 14.7334L39.462 15.6746C49.3366 19.2192 54.4012 30.2374 50.7312 39.9815L51.667 40.334L52.6028 40.6865C56.6666 29.8968 51.063 17.7139 40.1377 13.7922L39.7998 14.7334ZM51.667 40.334L50.7253 39.9976C48.8291 45.3067 44.6549 49.3591 39.4562 51.2611L39.7998 52.2002L40.1434 53.1393C45.8778 51.0413 50.5048 46.5611 52.6087 40.6703L51.667 40.334ZM39.7998 52.2002L39.3527 51.3057C38.9643 51.4999 38.6024 51.7796 38.348 52.1934C38.0944 52.606 38 53.0666 38 53.5342H39H40C40 53.335 40.0388 53.2619 40.0518 53.2408C40.064 53.221 40.102 53.1671 40.2469 53.0947L39.7998 52.2002ZM39 53.5342H38V55.4004H39H40V53.5342H39ZM39 55.4004L38 55.4004C38 55.8324 38.109 56.2838 38.3912 56.6718C38.6789 57.0673 39.0914 57.3206 39.5575 57.437L39.7998 56.4668L40.0421 55.4966C40.0045 55.4872 39.9911 55.4781 39.9923 55.4789C39.9945 55.4803 40.0019 55.4861 40.0087 55.4955C40.0243 55.5169 40 55.5017 40 55.4003L39 55.4004ZM39.7998 56.4668V57.4668C39.86 57.4668 40.0379 57.4687 40.23 57.4369C40.3989 57.409 40.7512 57.3303 41.0402 57.0419L40.334 56.334L39.6277 55.626C39.712 55.5419 39.7938 55.5019 39.8359 55.4847C39.8583 55.4756 39.8757 55.4704 39.886 55.4677C39.8964 55.465 39.9026 55.4639 39.9038 55.4637C39.9048 55.4635 39.8966 55.4648 39.8762 55.4658C39.8554 55.4667 39.8345 55.4668 39.7998 55.4668V56.4668ZM40.334 56.334L40.6351 57.2876C53.8326 53.1197 61.052 39.0876 56.8872 25.8991L55.9336 26.2002L54.98 26.5013C58.8151 38.6457 52.168 51.548 40.0328 55.3804L40.334 56.334ZM55.9336 26.2002L56.8872 25.8991C54.3878 17.9845 48.2768 12.0143 40.645 9.51641L40.334 10.4668L40.0229 11.4172C47.057 13.7194 52.6794 19.2162 54.98 26.5013L55.9336 26.2002ZM26.2002 10.334V9.33398C26.1395 9.33398 25.9619 9.33217 25.7699 9.36404C25.6007 9.39212 25.2498 9.47105 24.9615 9.75813L25.667 10.4668L26.3725 11.1755C26.2887 11.2589 26.2075 11.2988 26.1654 11.316C26.143 11.3251 26.1257 11.3303 26.1154 11.333C26.1049 11.3358 26.0986 11.3368 26.0974 11.337C26.0962 11.3372 26.1042 11.3359 26.1245 11.335C26.145 11.3341 26.1658 11.334 26.2002 11.334V10.334ZM25.667 10.4668L25.3659 9.51322C12.1682 13.6809 4.94793 27.713 9.11282 40.9017L10.0664 40.6006L11.02 40.2995C7.18488 28.1551 13.8327 15.2527 25.9681 11.4204L25.667 10.4668ZM10.0664 40.6006L9.11438 40.9066C11.6131 48.68 17.5877 54.6536 25.361 57.1522L25.667 56.2002L25.973 55.2482C18.8133 52.9468 13.3198 47.4541 11.0184 40.2946L10.0664 40.6006ZM25.667 56.2002L25.2202 57.0948C25.7351 57.352 26.3207 57.3791 26.8358 57.1414C27.3463 56.9057 27.7016 56.4488 27.8364 55.9093L26.8662 55.667L25.896 55.4246C25.896 55.4247 25.8971 55.4206 25.9006 55.4134C25.904 55.4063 25.9097 55.3968 25.9183 55.3862C25.936 55.3641 25.9627 55.3416 25.9975 55.3255C26.0327 55.3093 26.0669 55.3039 26.0933 55.3048C26.1197 55.3056 26.1269 55.3121 26.1138 55.3056L25.667 56.2002ZM26.8662 55.667L27.5725 56.3749C28.0452 55.9034 28 55.3208 28 55.1338H27H26C26 55.2058 25.9998 55.2424 25.9987 55.2702C25.9976 55.2962 25.9966 55.2839 26.0028 55.2532C26.0101 55.2168 26.0263 55.1599 26.0602 55.0961C26.0941 55.0322 26.1324 54.9866 26.16 54.959L26.8662 55.667ZM27 55.1338H28V53.2666H27H26V55.1338H27ZM27 53.2666L28 53.2662C27.9998 52.7716 27.7718 52.3359 27.5723 52.0476C27.3576 51.7372 27.0697 51.4444 26.7552 51.2346L26.2002 52.0664L25.6452 52.8983C25.7306 52.9552 25.8425 53.0625 25.9277 53.1856C25.968 53.2439 25.9909 53.2895 26.0015 53.3162C26.0135 53.3466 26 53.3275 26 53.267L27 53.2666ZM26.2002 52.0664L26.538 51.1252C16.6634 47.5806 11.5998 36.5634 15.2698 26.8193L14.334 26.4668L13.3982 26.1143C9.33441 36.9039 14.937 49.0859 25.8623 53.0076L26.2002 52.0664ZM14.334 26.4668L15.2757 26.8031C17.1719 21.494 21.3452 17.4417 26.5438 15.5397L26.2002 14.6006L25.8566 13.6615C20.1222 15.7595 15.4961 20.2398 13.3922 26.1304L14.334 26.4668ZM26.2002 14.6006L26.6472 15.4951C27.0357 15.301 27.3976 15.0213 27.6521 14.6074C27.9057 14.1948 28 13.7342 28 13.2666H27H26C26 13.4659 25.9611 13.539 25.9482 13.5601C25.9361 13.5798 25.8981 13.6336 25.7532 13.7061L26.2002 14.6006ZM27 13.2666H28V11.4004H27H26V13.2666H27ZM27 11.4004H28C28 10.9685 27.8911 10.5171 27.6089 10.129C27.3212 9.73333 26.9085 9.48013 26.4424 9.36376L26.2002 10.334L25.958 11.3042C25.9957 11.3136 26.009 11.3227 26.0078 11.3219C26.0056 11.3205 25.9982 11.3147 25.9913 11.3052C25.9757 11.2837 26 11.2989 26 11.4004H27ZM31.9336 17.2666V16.2666C30.7648 16.2666 30.0775 17.178 29.8857 18.1368L30.8662 18.333L31.8468 18.5292C31.8846 18.3405 31.9446 18.2693 31.9566 18.2573C31.9614 18.2525 31.9579 18.2572 31.9459 18.2622C31.9337 18.2673 31.9272 18.2666 31.9336 18.2666V17.2666ZM30.8662 18.333H29.8662V21.3994H30.8662H31.8662V18.333H30.8662ZM30.8662 21.3994L30.734 20.4082C26.3442 20.9938 23.334 23.9984 23.334 27.9336H24.334H25.334C25.334 25.2021 27.3887 22.8722 30.9984 22.3906L30.8662 21.3994ZM24.334 27.9336L23.334 27.9336C23.3341 30.3617 24.086 32.2212 25.7517 33.5215C27.3421 34.763 29.6385 35.3878 32.4813 35.7264L32.5996 34.7334L32.7179 33.7404C29.9613 33.4121 28.1249 32.8368 26.9824 31.945C25.9153 31.112 25.3341 29.9051 25.334 27.9336L24.334 27.9336ZM32.5996 34.7334L32.4239 35.7178C34.2935 36.0516 35.3197 36.3913 35.8836 36.7958C36.1371 36.9776 36.2816 37.1631 36.3731 37.3696C36.4701 37.5884 36.5332 37.8892 36.5332 38.333L37.5332 38.333L38.5332 38.333C38.5332 37.7101 38.4462 37.111 38.2015 36.559C37.9513 35.9947 37.5624 35.5386 37.0492 35.1706C36.0796 34.4752 34.6391 34.0817 32.7754 33.749L32.5996 34.7334ZM37.5332 38.333H36.5332C36.5332 39.7263 35.3232 40.9335 33.1338 40.9336L33.1338 41.9336L33.1338 42.9336C36.0104 42.9335 38.5332 41.2065 38.5332 38.333H37.5332ZM33.1338 41.9336V40.9336C31.5297 40.9336 30.6134 40.593 30.0687 40.164C29.5349 39.7438 29.2189 39.129 29.047 38.2697L28.0664 38.4658L27.0858 38.6619C27.314 39.8026 27.7981 40.9218 28.8314 41.7354C29.8536 42.5403 31.271 42.9336 33.1338 42.9336V41.9336ZM28.0664 38.4658L29.0365 38.2232C28.7971 37.2657 28.0131 36.6663 27.1341 36.666L27.1338 37.666L27.1335 38.666C27.1097 38.666 27.0885 38.6576 27.075 38.6468C27.0688 38.6418 27.0688 38.6399 27.0726 38.646C27.0765 38.6522 27.0869 38.6709 27.0963 38.7084L28.0664 38.4658ZM27.1338 37.666V36.666H24.8662V37.666V38.666H27.1338V37.666ZM24.8662 37.666L24.8658 36.666C23.7802 36.6665 22.9337 37.5149 22.9336 38.5995L23.9336 38.5996L24.9336 38.5997C24.9336 38.5922 24.9348 38.5956 24.9306 38.6059C24.9265 38.616 24.919 38.6282 24.9076 38.6397C24.8962 38.6511 24.8839 38.6587 24.8736 38.6629C24.863 38.6672 24.8594 38.666 24.8666 38.666L24.8662 37.666ZM23.9336 38.5996H22.9336V38.7334H23.9336H24.9336V38.5996H23.9336ZM23.9336 38.7334L22.9461 38.8914C23.2405 40.7314 23.9897 42.3779 25.3256 43.6556C26.658 44.9299 28.4982 45.765 30.8501 46.1215L31 45.1328L31.1499 44.1441C29.102 43.8337 27.6756 43.1356 26.708 42.2102C25.7439 41.2882 25.1599 40.0684 24.921 38.5754L23.9336 38.7334ZM31 45.1328H30V48.333H31H32V45.1328H31ZM31 48.333H30C30 49.5026 30.9133 50.1883 31.87 50.3799L32.0664 49.3994L32.2628 48.4189C32.0739 48.381 32.0025 48.321 31.9904 48.3089C31.9855 48.3041 31.9903 48.3076 31.9954 48.3198C32.0007 48.3323 32 48.339 32 48.333H31ZM32.0664 49.3994V50.3994H34.0664V49.3994V48.3994H32.0664V49.3994ZM34.0664 49.3994V50.3994C35.2354 50.3994 35.9225 49.4875 36.1143 48.5293L35.1338 48.333L34.1532 48.1367C34.1155 48.3253 34.0555 48.3966 34.0434 48.4087C34.0385 48.4135 34.042 48.4088 34.054 48.4038C34.0662 48.3987 34.0727 48.3994 34.0664 48.3994V49.3994ZM35.1338 48.333H36.1338V45.1328H35.1338H34.1338V48.333H35.1338ZM35.1338 45.1328L35.2983 46.1192C39.6827 45.3881 42.7997 42.2477 42.7998 38.0664L41.7998 38.0664L40.7998 38.0664C40.7997 41.0848 38.5844 43.5436 34.9693 44.1464L35.1338 45.1328ZM41.7998 38.0664H42.7998C42.7998 35.5074 42.0156 33.607 40.3061 32.3043C38.6804 31.0653 36.3488 30.4767 33.5186 30.1398L33.4004 31.1328L33.2822 32.1258C36.0518 32.4555 37.92 33.0004 39.0939 33.895C40.1842 34.7258 40.7998 35.9589 40.7998 38.0664H41.7998ZM33.4004 31.1328L33.5326 30.1416C31.5596 29.8785 30.6005 29.5036 30.1291 29.1221C29.757 28.821 29.5996 28.4429 29.5996 27.666H28.5996H27.5996C27.5996 28.756 27.8427 29.8446 28.8709 30.6768C29.7999 31.4286 31.2412 31.8537 33.2682 32.124L33.4004 31.1328ZM28.5996 27.666L29.5996 27.6661C29.5997 26.9912 29.8283 26.5307 30.2245 26.2138C30.6523 25.8717 31.3996 25.5997 32.5997 25.5996L32.5996 24.5996L32.5996 23.5996C31.1335 23.5997 29.8809 23.9276 28.9753 24.6519C28.038 25.4016 27.5997 26.4742 27.5996 27.666L28.5996 27.666ZM32.5996 24.5996V25.5996C33.7022 25.5996 34.4231 25.7858 34.9181 26.0965C35.3909 26.3933 35.7713 26.8755 36.0513 27.7156L37 27.3994L37.9487 27.0832C37.5622 25.9236 36.9423 25.0058 35.9815 24.4027C35.0429 23.8134 33.8969 23.5996 32.5996 23.5996V24.5996ZM37 27.3994L36.0514 27.7159C36.328 28.5449 37.1256 29.0664 37.9336 29.0664V28.0664V27.0664C37.9445 27.0664 37.9491 27.0681 37.948 27.0678C37.9468 27.0674 37.9438 27.0661 37.9404 27.0638C37.9372 27.0615 37.9369 27.0605 37.9385 27.0626C37.9405 27.0652 37.9449 27.0718 37.9486 27.083L37 27.3994ZM37.9336 28.0664V29.0664H40.0664V28.0664V27.0664H37.9336V28.0664ZM40.0664 28.0664V29.0664C41.1524 29.0664 42 28.218 42 27.1328H41H40C40 27.1401 39.9988 27.1366 40.0031 27.1262C40.0072 27.1161 40.0147 27.1039 40.0261 27.0925C40.0374 27.0811 40.0496 27.0736 40.0598 27.0695C40.0702 27.0652 40.0737 27.0664 40.0664 27.0664V28.0664ZM41 27.1328H42V27H41H40V27.1328H41ZM41 27L41.9839 26.8211C41.3714 23.4529 38.6111 20.8433 35.0866 20.537L35 21.5332L34.9134 22.5294C37.522 22.7562 39.5618 24.6802 40.0161 27.1789L41 27ZM35 21.5332H36V18.333H35H34V21.5332H35ZM35 18.333L36 18.3329C35.9998 17.1631 35.0868 16.4777 34.1299 16.2861L33.9336 17.2666L33.7372 18.2471C33.9263 18.285 33.9977 18.345 34.0096 18.357C34.0144 18.3618 34.0096 18.3582 34.0045 18.346C33.9993 18.3336 34 18.3269 34 18.3331L35 18.333ZM33.9336 17.2666V16.2666H31.9336V17.2666V18.2666H33.9336V17.2666Z" fill="#3E97FF"/>
</svg>
