<svg width="62" height="48" viewBox="0 0 62 48" fill="none" xmlns="http://www.w3.org/2000/svg">
<path d="M10.4209 35.9629H55.2266V35.9648L46.375 44.8154C46.2067 44.9836 45.9734 45.083 45.7246 45.083H0.918945L0.917969 45.0811H0.918945L9.76953 36.2305C9.93782 36.0622 10.172 35.9629 10.4209 35.9629ZM8.70215 19.3486C11.5007 19.3486 13.7695 21.6174 13.7695 24.416V28.4541H10.4209C10.172 28.4541 9.93782 28.3548 9.76953 28.1865L0.931641 19.3486H8.70215ZM26.127 19.3486H45.874C46.0663 19.3799 46.2416 19.4683 46.375 19.6016L55.2266 28.4521V28.4541H21.0596V24.416C21.0596 21.6174 23.3284 19.3486 26.127 19.3486ZM55.2266 2.91699V2.91895L46.375 11.7695C46.262 11.8825 46.1186 11.9623 45.9609 12.0039H26.127C23.3283 12.0039 21.0596 9.73513 21.0596 6.93652V2.91699H55.2266ZM10.4209 2.91699H13.7695V6.93652C13.7695 9.73513 11.5008 12.0039 8.70215 12.0039H0.950195L9.75684 3.19727C9.95026 3.01174 10.1929 2.917 10.4209 2.91699Z" fill="#3E97FF" stroke="#3E97FF" stroke-width="1.83333"/>
<path d="M17.1143 5.51517C17.1869 5.08424 17.8079 5.0894 17.8732 5.52147L18.306 8.38278C18.8103 11.7173 21.4296 14.3333 24.7648 14.8335L27.6812 15.2709C28.1132 15.3357 28.1194 15.9564 27.6888 16.0297L24.6379 16.5494C21.376 17.1051 18.836 19.6862 18.3328 22.9566L17.8745 25.9355C17.8081 26.3665 17.1889 26.3713 17.1159 25.9414L16.5893 22.8427C16.042 19.6222 13.5185 17.0996 10.2977 16.5534L7.33514 16.051C6.90541 15.9781 6.90977 15.3593 7.34049 15.2925L10.2066 14.8479C13.4786 14.3404 16.0577 11.7942 16.6072 8.52899L17.1143 5.51517Z" fill="#E9F3FF"/>
</svg>
