<svg width="272" height="48" viewBox="0 0 272 48" fill="none" xmlns="http://www.w3.org/2000/svg">
<path d="M7.57812 32.7002H40.165V32.7012L33.7275 39.1387C33.6052 39.2609 33.4357 39.3329 33.2549 39.333H0.667969L0.666992 39.332H0.668945L7.10547 32.8945C7.22775 32.7724 7.39733 32.7003 7.57812 32.7002ZM6.3291 20.6172C8.36446 20.6172 10.0146 22.2674 10.0146 24.3027V27.2393H7.57812C7.39729 27.2391 7.22776 27.1671 7.10547 27.0449L0.678711 20.6172H6.3291ZM19.001 20.6172H33.3623C33.5024 20.6399 33.6304 20.7037 33.7275 20.8008L40.165 27.2383V27.2393H15.3154V24.3027C15.3154 22.2674 16.9657 20.6173 19.001 20.6172ZM40.165 8.66699V8.66797L33.7275 15.1055C33.6459 15.187 33.5424 15.2449 33.4287 15.2754H19.001C16.9658 15.2753 15.3157 13.6259 15.3154 11.5908V8.66699H40.165ZM7.57812 8.66699H10.0146V11.5908C10.0144 13.626 8.36431 15.2754 6.3291 15.2754H0.692383L7.0957 8.87109C7.2363 8.73612 7.41236 8.66711 7.57812 8.66699Z" fill="#3E97FF" stroke="#3E97FF" stroke-width="1.33333"/>
<path d="M12.4474 10.5564C12.5002 10.243 12.9518 10.2468 12.9993 10.561L13.3141 12.642C13.6808 15.0671 15.5858 16.9697 18.0114 17.3334L20.1324 17.6515C20.4466 17.6987 20.4511 18.15 20.1379 18.2034L17.9191 18.5814C15.5468 18.9855 13.6996 20.8627 13.3336 23.2411L13.0002 25.4076C12.952 25.721 12.5016 25.7246 12.4485 25.4119L12.0655 23.1583C11.6675 20.8161 9.83224 18.9815 7.48989 18.5843L5.33527 18.2189C5.02274 18.1659 5.02591 17.7158 5.33916 17.6672L7.42363 17.3439C9.80327 16.9748 11.679 15.123 12.0786 12.7483L12.4474 10.5564Z" fill="#E9F3FF"/>
<path d="M247.948 36.9614L257.916 10.927H261.226L271.119 36.9614H267.958L261.598 20.0762C261.424 19.6051 261.226 19.0597 261.003 18.4398C260.804 17.7951 260.581 17.1381 260.333 16.4686C260.11 15.7744 259.887 15.1049 259.664 14.4602C259.465 13.8156 259.279 13.2453 259.106 12.7494H259.85C259.651 13.3693 259.441 14.0015 259.217 14.6462C259.019 15.2661 258.808 15.8983 258.585 16.543C258.362 17.1629 258.139 17.7827 257.916 18.4026C257.693 19.0225 257.469 19.6423 257.246 20.2622L250.924 36.9614H247.948ZM252.188 29.7833L253.267 26.9568H265.577L266.767 29.7833H252.188Z" fill="white"/>
<path d="M234.801 36.9614L224.722 10.927H227.995L234.466 27.8866C234.764 28.6552 235.024 29.337 235.247 29.9321C235.47 30.5272 235.669 31.0975 235.842 31.643C236.04 32.1636 236.226 32.6843 236.4 33.205C236.574 33.7257 236.759 34.296 236.958 34.9158L235.991 34.953C236.239 34.11 236.474 33.329 236.698 32.6099C236.945 31.8909 237.193 31.1595 237.441 30.4156C237.714 29.647 238.049 28.7544 238.446 27.7378L244.88 10.927H248.153L237.776 36.9614H234.801Z" fill="white"/>
<path d="M209.552 37.3333C207.717 37.3333 206.019 37.011 204.456 36.3663C202.919 35.6968 201.568 34.767 200.403 33.5769C199.262 32.3868 198.369 30.9859 197.725 29.3742C197.105 27.7378 196.795 25.9525 196.795 24.0186C196.795 22.0846 197.105 20.3118 197.725 18.7001C198.369 17.0637 199.262 15.6504 200.403 14.4602C201.568 13.2453 202.919 12.3155 204.456 11.6708C206.019 11.0014 207.717 10.6666 209.552 10.6666C211.411 10.6666 213.11 11.0014 214.647 11.6708C216.209 12.3155 217.56 13.2453 218.701 14.4602C219.866 15.6504 220.759 17.0637 221.379 18.7001C222.023 20.3118 222.346 22.0846 222.346 24.0186C222.346 25.9277 222.023 27.7006 221.379 29.337C220.759 30.9487 219.866 32.362 218.701 33.5769C217.56 34.767 216.209 35.6968 214.647 36.3663C213.11 37.011 211.411 37.3333 209.552 37.3333ZM209.552 34.4695C210.965 34.4695 212.267 34.2216 213.457 33.7257C214.672 33.205 215.713 32.4735 216.581 31.5313C217.449 30.5891 218.118 29.4858 218.589 28.2213C219.085 26.9319 219.333 25.531 219.333 24.0186C219.333 22.4813 219.085 21.0804 218.589 19.8159C218.118 18.5265 217.449 17.4108 216.581 16.4686C215.713 15.5264 214.672 14.7949 213.457 14.2743C212.267 13.7536 210.965 13.4932 209.552 13.4932C208.138 13.4932 206.824 13.7536 205.609 14.2743C204.419 14.7949 203.39 15.5264 202.522 16.4686C201.655 17.4108 200.985 18.5265 200.514 19.8159C200.043 21.0804 199.807 22.4813 199.807 24.0186C199.807 25.531 200.043 26.9319 200.514 28.2213C200.985 29.4858 201.655 30.5891 202.522 31.5313C203.39 32.4735 204.419 33.205 205.609 33.7257C206.824 34.2216 208.138 34.4695 209.552 34.4695Z" fill="white"/>
<path d="M168.785 36.9614V10.927H171.426L188.46 33.4654L187.939 34.1348C187.865 33.7381 187.803 33.143 187.753 32.3496C187.728 31.5562 187.691 30.6636 187.642 29.6718C187.617 28.6552 187.592 27.6014 187.567 26.5105C187.542 25.4195 187.518 24.3533 187.493 23.3119C187.493 22.2706 187.493 21.3284 187.493 20.4853V10.927H190.394V36.9614H187.679L170.719 14.7206L171.165 13.9396C171.24 14.9313 171.302 15.9107 171.351 16.8777C171.426 17.8447 171.475 18.7745 171.5 19.6671C171.55 20.5597 171.587 21.378 171.612 22.1218C171.637 22.8656 171.649 23.4979 171.649 24.0186C171.674 24.5393 171.686 24.9112 171.686 25.1343V36.9614H168.785Z" fill="white"/>
<path d="M145.777 36.9614V10.927H161.547V13.7536H148.678V34.1348H161.472V36.9614H145.777ZM147.116 24.9856V22.159H159.464V24.9856H147.116Z" fill="white"/>
<path d="M121.223 28.9651L121.111 25.5063L135.839 10.927H139.744L121.223 28.9651ZM119.028 36.9614V10.927H121.929V36.9614H119.028ZM136.471 36.9614L126.02 23.0516L128.14 21.192L140.116 36.9614H136.471Z" fill="white"/>
<path d="M90.3584 36.9614L100.326 10.927H103.636L113.529 36.9614H110.368L104.008 20.0762C103.834 19.6051 103.636 19.0597 103.413 18.4398C103.214 17.7951 102.991 17.1381 102.743 16.4686C102.52 15.7744 102.297 15.1049 102.074 14.4602C101.876 13.8156 101.69 13.2453 101.516 12.7494H102.26C102.061 13.3693 101.851 14.0015 101.628 14.6462C101.429 15.2661 101.218 15.8983 100.995 16.543C100.772 17.1629 100.549 17.7827 100.326 18.4026C100.103 19.0225 99.8795 19.6423 99.6564 20.2622L93.3338 36.9614H90.3584ZM94.5983 29.7833L95.6769 26.9568H107.987L109.178 29.7833H94.5983Z" fill="white"/>
<path d="M78.8241 36.9614V13.7536H71.3857V10.927H89.4611V13.7536H81.7251V36.9614H78.8241Z" fill="white"/>
<path d="M58.317 37.3333C57.0029 37.3333 55.7631 37.1473 54.5978 36.7754C53.4324 36.4035 52.3662 35.8456 51.3993 35.1018C50.4323 34.3579 49.5768 33.4405 48.833 32.3496L50.8414 30.118C52.0067 31.7793 53.1969 32.9446 54.4118 33.6141C55.6515 34.2835 57.04 34.6183 58.5773 34.6183C59.6931 34.6183 60.7097 34.4323 61.6271 34.0604C62.5445 33.6885 63.2635 33.1678 63.7842 32.4983C64.3049 31.8289 64.5652 31.0602 64.5652 30.1924C64.5652 29.6222 64.466 29.1139 64.2677 28.6676C64.0941 28.2213 63.8214 27.8245 63.4495 27.4774C63.0775 27.1303 62.6188 26.8204 62.0734 26.5476C61.5279 26.2749 60.8956 26.0269 60.1766 25.8038C59.4823 25.5806 58.7013 25.3575 57.8335 25.1343C56.5689 24.8368 55.4532 24.4897 54.4862 24.0929C53.544 23.6714 52.7382 23.1631 52.0687 22.5681C51.4241 21.973 50.9282 21.2911 50.581 20.5225C50.2587 19.7291 50.0975 18.7993 50.0975 17.7331C50.0975 16.7165 50.3083 15.7743 50.7298 14.9065C51.1761 14.0387 51.7836 13.2949 52.5522 12.675C53.3208 12.0303 54.2258 11.5344 55.2672 11.1873C56.3086 10.8402 57.4244 10.6666 58.6145 10.6666C59.9534 10.6666 61.1436 10.8526 62.1849 11.2245C63.2511 11.5716 64.1933 12.0923 65.0115 12.7866C65.8298 13.4808 66.5364 14.3114 67.1315 15.2784L65.0859 17.2868C64.5652 16.4686 63.9702 15.7619 63.3007 15.1669C62.656 14.5718 61.937 14.1255 61.1436 13.8279C60.3749 13.5056 59.5195 13.3444 58.5773 13.3444C57.4863 13.3444 56.5194 13.5304 55.6763 13.9023C54.8581 14.2743 54.2135 14.7949 53.7424 15.4644C53.2713 16.1091 53.0357 16.8529 53.0357 17.6959C53.0357 18.3158 53.1473 18.8737 53.3704 19.3696C53.5936 19.8407 53.9407 20.2622 54.4118 20.6341C54.9077 20.9812 55.54 21.3035 56.3086 21.6011C57.102 21.8738 58.0442 22.1342 59.1352 22.3821C60.4245 22.6796 61.5775 23.0392 62.594 23.4607C63.6354 23.8822 64.5156 24.3905 65.2347 24.9855C65.9785 25.5558 66.5364 26.2253 66.9083 26.9939C67.305 27.7626 67.5034 28.6428 67.5034 29.6345C67.5034 31.1718 67.1191 32.5231 66.3504 33.6885C65.5818 34.829 64.5032 35.7216 63.1147 36.3663C61.751 37.011 60.1518 37.3333 58.317 37.3333Z" fill="white"/>
</svg>
