<svg width="53" height="33" viewBox="0 0 53 33" fill="none" xmlns="http://www.w3.org/2000/svg">
<path d="M44.7139 32.5635L48.6975 26.4222L52.8471 32.605L44.7139 32.5635Z" fill="#E9F3FF"/>
<path d="M33.9337 15.8061L23.2802 0.0921693L31.3881 0L37.7224 10.0046L44.0636 0.125603L52.2261 0.118395L41.6295 15.9837L45.1222 21.0748L41.0967 26.9355L37.7816 21.726L30.8553 32.6777H22.5675L33.9337 15.8061Z" fill="#E9F3FF"/>
<path d="M8.135 0.181601L0 0.0752543L4.0941 6.18981L8.135 0.181601Z" fill="#E9F3FF"/>
<path d="M2.81748 18.1174L16.0574 0.0220899L23.2263 0.0897587L13.1862 13.1551C23.0758 13.6336 22.9694 21.2369 22.9694 23.2574C22.9694 25.2778 20.8958 31.9773 14.3559 32.828C7.816 33.6787 5.47652 31.1797 3.5624 29.5846C2.0311 28.3085 1.32926 25.0829 1.16975 23.6296H8.08185C8.45404 25.9159 10.5277 26.8198 12.2823 26.6603C14.0369 26.5007 15.951 25.331 16.0574 22.0876C16.1424 19.4929 14.0723 18.4544 13.0267 18.2594L2.81748 18.1174Z" fill="#E9F3FF"/>
</svg>
