<svg width="99" height="33" viewBox="0 0 99 33" fill="none" xmlns="http://www.w3.org/2000/svg">
<path d="M82.5 8.39233e-05C73.3874 8.39233e-05 66.0001 7.38737 66.0001 16.5C66.0001 25.6127 73.3874 33 82.5 33C91.6127 33 99 25.6127 99 16.5C99 7.38737 91.6127 8.39233e-05 82.5 8.39233e-05Z" fill="#E9F3FF"/>
<path d="M49.4971 8.39233e-05C40.3844 8.39233e-05 32.9971 7.38737 32.9971 16.5C32.9971 25.6127 40.3844 33 49.4971 33C58.6098 33 65.9971 25.6127 65.9971 16.5C65.9971 7.38737 58.6098 8.39233e-05 49.4971 8.39233e-05Z" fill="#E9F3FF"/>
<path d="M16.5 8.39233e-05C7.38737 8.39233e-05 8.39233e-05 7.38737 8.39233e-05 16.5C8.39233e-05 25.6127 7.38737 33 16.5 33C25.6127 33 33 25.6127 33 16.5C33 7.38737 25.6127 8.39233e-05 16.5 8.39233e-05Z" fill="#E9F3FF"/>
</svg>
